# Blender v3.2.0 OBJ File: ''
# www.blender.org
mtllib Emit.mtl
o Lase_Cylinder.001
v 0.000000 0.199265 -0.763969
v 0.000000 3.738932 -0.763969
v 0.381984 0.199265 -0.661616
v 0.381984 3.738932 -0.661616
v 0.661616 0.199265 -0.381984
v 0.661616 3.738932 -0.381984
v 0.763969 0.199265 0.000000
v 0.763969 3.738932 0.000000
v 0.661616 0.199265 0.381984
v 0.661616 3.738932 0.381984
v 0.381984 0.199265 0.661616
v 0.381984 3.738932 0.661616
v -0.000000 0.199265 0.763969
v -0.000000 3.738932 0.763969
v -0.381984 0.199265 0.661616
v -0.381984 3.738932 0.661616
v -0.661616 0.199265 0.381984
v -0.661616 3.738932 0.381984
v -0.763969 0.199265 -0.000000
v -0.763969 3.738932 -0.000000
v -0.661616 0.199265 -0.381984
v -0.661616 3.738932 -0.381984
v -0.381984 0.199265 -0.661616
v -0.381984 3.738932 -0.661616
v 0.381586 3.290654 -0.381984
v 0.381586 3.290654 0.000000
v 0.381586 1.144103 0.000000
v 0.381586 3.290654 0.381984
v 0.381586 1.144103 0.381984
v 0.000000 3.290654 -0.763969
v 0.000000 1.144103 -0.763969
v 0.661616 1.144103 -0.381984
v 0.661616 3.290654 -0.381984
v 0.763969 1.144103 0.000000
v 0.763969 3.290654 0.000000
v 0.661616 1.144103 0.381984
v 0.661616 3.290654 0.381984
v -0.000000 1.144103 0.763969
v -0.000000 3.290654 0.763969
v -0.381984 1.144103 0.661616
v -0.381984 3.290654 0.661616
v -0.661616 1.144103 0.381984
v -0.661616 3.290654 0.381984
v -0.763969 1.144103 -0.000000
v -0.763969 3.290654 -0.000000
v -0.661616 1.144103 -0.381984
v -0.661616 3.290654 -0.381984
v -0.381984 1.144103 -0.661616
v -0.381984 3.290654 -0.661616
v 0.419650 3.738932 -0.726855
v 0.000000 3.738932 -0.839300
v 0.726855 3.738932 -0.419650
v 0.839300 3.738932 0.000000
v 0.726855 3.738932 0.419650
v 0.419650 3.738932 0.726855
v -0.000000 3.738932 0.839300
v -0.419650 3.738932 0.726855
v -0.726855 3.738932 0.419650
v -0.839300 3.738932 -0.000000
v -0.726855 3.738932 -0.419650
v -0.419650 3.738932 -0.726855
v 0.000000 3.838381 0.000000
v 0.419650 3.838381 -0.726855
v 0.000000 3.838381 -0.839300
v 0.726855 3.838381 -0.419650
v 0.839300 3.838381 0.000000
v 0.726855 3.838381 0.419650
v 0.419650 3.838381 0.726855
v -0.000000 3.838381 0.839300
v -0.419650 3.838381 0.726855
v -0.726855 3.838381 0.419650
v -0.839300 3.838381 -0.000000
v -0.726855 3.838381 -0.419650
v -0.419650 3.838381 -0.726855
v 0.000000 0.199265 -0.942049
v 0.471025 0.199265 -0.815839
v 0.815839 0.199265 -0.471025
v 0.942049 0.199265 0.000000
v 0.815839 0.199265 0.471025
v 0.471025 0.199265 0.815839
v -0.000000 0.199265 0.942049
v -0.471025 0.199265 0.815839
v -0.815839 0.199265 0.471025
v -0.942049 0.199265 -0.000000
v -0.815839 0.199265 -0.471025
v -0.471025 0.199265 -0.815839
v 0.000000 0.000000 -0.000000
v 0.000000 0.000000 -0.942049
v 0.471025 0.000000 -0.815839
v 0.815839 0.000000 -0.471025
v 0.942049 0.000000 0.000000
v 0.815839 0.000000 0.471025
v 0.471025 0.000000 0.815839
v -0.000000 0.000000 0.942049
v -0.471025 0.000000 0.815839
v -0.815839 0.000000 0.471025
v -0.942049 0.000000 -0.000000
v -0.815839 0.000000 -0.471025
v -0.471025 0.000000 -0.815839
v 0.381586 1.144103 -0.381984
v 0.381586 1.144103 -0.661616
v 0.381586 1.144103 0.661616
v 0.381586 3.290654 0.661616
v 0.381984 3.290654 -0.661616
v 0.223909 2.697054 -0.314718
v 0.740630 2.697054 -0.029715
v 0.223909 2.474514 -0.222540
v 0.740630 2.676043 -0.021011
v 0.223909 2.382335 0.000000
v 0.740630 2.667339 0.000000
v 0.223909 2.474514 0.222540
v 0.740630 2.676043 0.021011
v 0.223909 2.697054 0.314718
v 0.740630 2.697054 0.029715
v 0.223909 2.919593 0.222540
v 0.740630 2.718065 0.021011
v 0.223909 3.011772 -0.000000
v 0.740630 2.726768 0.000000
v 0.223909 2.919593 -0.222539
v 0.740630 2.718065 -0.021011
v 0.441854 2.697054 -0.314718
v 0.441854 2.474514 -0.222540
v 0.441854 2.382335 0.000000
v 0.441854 2.474514 0.222540
v 0.441854 2.697054 0.314718
v 0.441854 2.919593 0.222540
v 0.441854 3.011772 -0.000000
v 0.441854 2.919594 -0.222539
v 0.740630 2.656054 -0.041000
v 0.740630 2.697054 -0.057983
v 0.740630 2.639071 0.000000
v 0.740630 2.656054 0.041000
v 0.740630 2.697054 0.057983
v 0.740630 2.738055 0.041001
v 0.740630 2.755037 0.000000
v 0.740630 2.738055 -0.041000
v 0.518592 2.676043 -0.021011
v 0.518592 2.697054 -0.029715
v 0.518592 2.667339 0.000000
v 0.518592 2.676043 0.021011
v 0.518592 2.697054 0.029715
v 0.518592 2.718065 0.021011
v 0.518592 2.726768 0.000000
v 0.518592 2.718065 -0.021011
vt 0.235159 0.717363
vt 0.215480 0.775952
vt 0.209844 0.776155
vt 0.204818 0.717115
vt 0.204101 0.779496
vt 0.171542 0.733125
vt 0.198995 0.783800
vt 0.145071 0.758912
vt 0.196863 0.789067
vt 0.134935 0.787584
vt 0.533099 0.758978
vt 0.513420 0.817567
vt 0.507784 0.817770
vt 0.502757 0.758730
vt 0.502041 0.821111
vt 0.469482 0.774741
vt 0.210249 0.780629
vt 0.213532 0.779960
vt 0.235159 0.812515
vt 0.232482 0.814294
vt 0.496935 0.825416
vt 0.443011 0.800528
vt 0.494803 0.830682
vt 0.432875 0.829200
vt 0.873611 0.671993
vt 0.908400 0.671993
vt 0.908400 0.702863
vt 0.873611 0.702863
vt 0.873611 0.634735
vt 0.908400 0.634735
vt 0.873611 0.597476
vt 0.908400 0.597476
vt 0.873611 0.566606
vt 0.908400 0.566606
vt 0.873611 0.535736
vt 0.908400 0.535736
vt 0.873611 0.498477
vt 0.908400 0.498477
vt 0.873611 0.461219
vt 0.908400 0.461219
vt 0.873611 0.430349
vt 0.908400 0.430349
vt 0.206246 0.782521
vt 0.203111 0.785715
vt 0.201330 0.788617
vt 0.511472 0.821575
vt 0.508189 0.822244
vt 0.504186 0.824136
vt 0.501051 0.827331
vt 0.499270 0.830233
vt 0.524658 0.859886
vt 0.522336 0.861574
vt 0.530422 0.855910
vt 0.527555 0.857852
vt 0.226718 0.818271
vt 0.224396 0.819958
vt 0.229615 0.816237
vt 0.533099 0.854131
vt 0.281415 0.318634
vt 0.397615 0.331273
vt 0.390689 0.394934
vt 0.274493 0.382295
vt 0.262769 0.512200
vt 0.368938 0.515975
vt 0.368878 0.568306
vt 0.264004 0.577720
vt 0.382598 0.618629
vt 0.274337 0.644518
vt 0.410843 0.672711
vt 0.293887 0.711729
vt 0.432233 0.736712
vt 0.315298 0.775792
vt 0.316030 0.000321
vt 0.432233 0.012958
vt 0.425310 0.076620
vt 0.309107 0.063984
vt 0.418387 0.140283
vt 0.302184 0.127647
vt 0.411464 0.203946
vt 0.295261 0.191310
vt 0.404540 0.267610
vt 0.288338 0.254972
vt 0.583605 0.865708
vt 0.599943 0.926681
vt 0.589529 0.932693
vt 0.571580 0.865708
vt 0.383769 0.458531
vt 0.267570 0.445953
vt 0.786247 0.091045
vt 0.761262 0.149797
vt 0.734552 0.142277
vt 0.763075 0.076787
vt 0.529295 0.482224
vt 0.471522 0.491240
vt 0.461112 0.424529
vt 0.518884 0.415513
vt 0.539706 0.548936
vt 0.481933 0.557952
vt 0.550116 0.615648
vt 0.492343 0.624664
vt 0.560527 0.682360
vt 0.502754 0.691375
vt 0.570937 0.749072
vt 0.513164 0.758087
vt 0.537639 0.081447
vt 0.492305 0.052633
vt 0.525635 0.000321
vt 0.570937 0.029186
vt 0.504070 0.126569
vt 0.461210 0.105719
vt 0.486932 0.173645
vt 0.439918 0.161948
vt 0.484951 0.224438
vt 0.432875 0.224748
vt 0.498060 0.282095
vt 0.440292 0.291110
vt 0.508472 0.348803
vt 0.450701 0.357819
vt 0.000333 0.400851
vt 0.000327 0.337726
vt 0.262092 0.337703
vt 0.262097 0.400827
vt 0.000338 0.463975
vt 0.262103 0.463951
vt 0.000344 0.527099
vt 0.262109 0.527076
vt 0.000350 0.590223
vt 0.262114 0.590200
vt 0.000355 0.653347
vt 0.262120 0.653324
vt 0.000361 0.716472
vt 0.262126 0.716448
vt 0.000352 0.063384
vt 0.000361 0.000321
vt 0.262126 0.000359
vt 0.262117 0.063422
vt 0.407064 0.498810
vt 0.543565 0.124410
vt 0.541581 0.184379
vt 0.521595 0.242177
vt 0.000321 0.274602
vt 0.262086 0.274640
vt 0.427317 0.560581
vt 0.424259 0.626139
vt 0.933940 0.638395
vt 0.933940 0.707744
vt 0.921813 0.707744
vt 0.921813 0.638395
vt 0.644578 0.760099
vt 0.599942 0.804734
vt 0.589529 0.798722
vt 0.638566 0.749685
vt 0.734556 0.926681
vt 0.779192 0.971316
vt 0.773180 0.981730
vt 0.724143 0.932693
vt 0.644578 0.971316
vt 0.638566 0.981730
vt 0.840165 0.743761
vt 0.779192 0.760099
vt 0.773180 0.749685
vt 0.840165 0.731736
vt 0.734556 0.804734
vt 0.724143 0.798722
vt 0.840165 0.987654
vt 0.840165 0.999679
vt 0.718219 0.865708
vt 0.706194 0.865708
vt 0.705551 0.743761
vt 0.705551 0.731736
vt 0.705551 0.987654
vt 0.705551 0.999679
vt 0.909042 0.707744
vt 0.909042 0.638396
vt 0.921170 0.638396
vt 0.921170 0.707744
vt 0.909042 0.499698
vt 0.909042 0.430349
vt 0.921170 0.430349
vt 0.921170 0.499698
vt 0.933940 0.569046
vt 0.921813 0.569046
vt 0.909043 0.777092
vt 0.921170 0.777092
vt 0.933940 0.777092
vt 0.933940 0.846440
vt 0.921813 0.846440
vt 0.921813 0.777092
vt 0.909042 0.569047
vt 0.921170 0.569047
vt 0.933940 0.499697
vt 0.921813 0.499697
vt 0.909043 0.846441
vt 0.921170 0.846441
vt 0.933940 0.430349
vt 0.921813 0.430349
vt 0.963232 0.134293
vt 0.896246 0.018270
vt 0.963232 0.000321
vt 0.847209 0.067307
vt 0.829261 0.134293
vt 0.847209 0.201278
vt 0.896246 0.250315
vt 0.963232 0.268264
vt 0.134293 0.851086
vt 0.067307 0.735063
vt 0.134293 0.717115
vt 0.018270 0.784100
vt 0.000321 0.851086
vt 0.018270 0.918071
vt 0.067307 0.967108
vt 0.134293 0.985057
vt 0.734067 0.284453
vt 0.761538 0.351497
vt 0.740728 0.363706
vt 0.710612 0.291268
vt 0.657406 0.091045
vt 0.632422 0.149797
vt 0.605711 0.142277
vt 0.634235 0.076787
vt 0.786458 0.337043
vt 0.828618 0.389604
vt 0.808924 0.414849
vt 0.761212 0.277268
vt 0.623854 0.213388
vt 0.632371 0.277268
vt 0.605227 0.284453
vt 0.595943 0.213177
vt 0.828618 0.041333
vt 0.811933 0.017109
vt 0.752694 0.213388
vt 0.724784 0.213177
vt 0.657618 0.337043
vt 0.699778 0.389604
vt 0.680084 0.414849
vt 0.632698 0.351497
vt 0.699778 0.041333
vt 0.683093 0.017109
vt 0.612677 0.064440
vt 0.662197 0.000321
vt 0.710973 0.136274
vt 0.741518 0.064440
vt 0.611887 0.363706
vt 0.581772 0.291268
vt 0.788320 0.429706
vt 0.582133 0.136274
vt 0.700420 0.213614
vt 0.659479 0.429706
vt 0.571580 0.213614
vt 0.791038 0.000321
vt 0.872968 0.580721
vt 0.872968 0.731093
vt 0.797782 0.710947
vt 0.742741 0.655907
vt 0.722595 0.580721
vt 0.742741 0.505535
vt 0.797782 0.450495
vt 0.872968 0.430349
vt 0.721953 0.580721
vt 0.721953 0.731093
vt 0.646766 0.710947
vt 0.591726 0.655907
vt 0.571580 0.580721
vt 0.591726 0.505535
vt 0.646766 0.450495
vt 0.721953 0.430349
vt 0.262110 0.108058
vt 0.000345 0.108020
vt 0.262101 0.169031
vt 0.000337 0.168993
vt 0.262092 0.230004
vt 0.000328 0.229966
vn 0.6218 -0.2997 -0.7236
vn 0.6218 -0.7236 -0.2997
vn 0.6218 -0.7236 0.2997
vn 0.6218 -0.2997 0.7236
vn 0.6218 0.2997 0.7236
vn 0.6218 0.7236 0.2997
vn 0.0000 0.3827 0.9239
vn 0.6218 0.7236 -0.2997
vn 0.6218 0.2997 -0.7236
vn -0.0000 0.3827 -0.9239
vn -0.0000 0.9239 -0.3827
vn 0.0000 0.9239 0.3827
vn 0.0000 -0.3827 0.9239
vn 0.0000 -0.9239 0.3827
vn 0.0000 -0.9239 -0.3827
vn 0.0000 -0.3827 -0.9239
vn 1.0000 -0.0000 0.0000
vn -0.2588 0.0000 -0.9659
vn 0.9659 0.0000 -0.2588
vn 0.9659 0.0000 0.2588
vn 0.7069 0.0001 0.7074
vn 0.4210 0.0001 0.9071
vn 0.5000 0.0001 0.8661
vn 0.2590 0.0000 0.9659
vn 0.2589 0.0001 0.9659
vn -0.2588 0.0000 0.9659
vn -0.5000 0.0000 0.8660
vn -0.8660 0.0000 0.5000
vn -0.7071 0.0000 0.7071
vn -0.9659 0.0000 0.2588
vn -1.0000 0.0000 0.0000
vn -0.8660 0.0000 -0.5000
vn -0.7071 0.0000 -0.7071
vn 0.0000 -1.0000 -0.0000
vn 0.2589 0.0001 -0.9659
vn 0.2589 0.0000 -0.9659
vn 0.4209 0.0001 -0.9071
vn 0.5000 0.0001 -0.8661
vn 0.0000 1.0000 0.0000
vn 0.7069 0.0001 -0.7074
vn 0.4209 -0.0001 0.9071
vn 0.5000 -0.0002 0.8660
vn 0.2589 -0.0001 0.9659
vn 0.2590 -0.0001 0.9659
vn 0.7069 -0.0003 0.7074
vn 0.4210 -0.0000 -0.9071
vn 0.5000 0.0000 -0.8660
vn 0.7071 0.0000 -0.7071
vn 0.2588 0.0000 -0.9659
vn 0.8660 0.0000 -0.5000
vn -0.0000 0.0000 1.0000
vn 0.8660 0.0000 0.5000
vn 0.7071 0.0000 0.7071
vn 0.2588 0.0000 0.9659
vn 1.0000 -0.0000 0.0004
vn 1.0000 -0.0001 0.0007
usemtl Material.004
s off
f 121/1/1 130/2/1 129/3/1 122/4/1
f 122/4/2 129/3/2 131/5/2 123/6/2
f 123/6/3 131/5/3 132/7/3 124/8/3
f 124/8/4 132/7/4 133/9/4 125/10/4
f 125/11/5 133/12/5 134/13/5 126/14/5
f 126/14/6 134/13/6 135/15/6 127/16/6
f 108/17/7 106/18/7 138/19/7 137/20/7
f 127/16/8 135/15/8 136/21/8 128/22/8
f 128/22/9 136/21/9 130/23/9 121/24/9
f 119/25/10 128/26/10 121/27/10 105/28/10
f 117/29/11 127/30/11 128/26/11 119/25/11
f 115/31/12 126/32/12 127/30/12 117/29/12
f 113/33/7 125/34/7 126/32/7 115/31/7
f 111/35/13 124/36/13 125/34/13 113/33/13
f 109/37/14 123/38/14 124/36/14 111/35/14
f 107/39/15 122/40/15 123/38/15 109/37/15
f 105/41/16 121/42/16 122/40/16 107/39/16
f 106/18/17 108/17/17 129/3/17 130/2/17
f 108/17/17 110/43/17 131/5/17 129/3/17
f 110/43/17 112/44/17 132/7/17 131/5/17
f 112/44/17 114/45/17 133/9/17 132/7/17
f 114/46/17 116/47/17 134/13/17 133/12/17
f 116/47/17 118/48/17 135/15/17 134/13/17
f 118/48/17 120/49/17 136/21/17 135/15/17
f 120/49/17 106/50/17 130/23/17 136/21/17
f 106/50/13 120/49/13 144/51/13 138/52/13
f 118/48/15 116/47/15 142/53/15 143/54/15
f 114/45/10 112/44/10 140/55/10 141/56/10
f 110/43/12 108/17/12 137/20/12 139/57/12
f 120/49/14 118/48/14 143/54/14 144/51/14
f 116/47/16 114/46/16 141/58/16 142/53/16
f 112/44/11 110/43/11 139/57/11 140/55/11
s 1
f 23/59/18 48/60/18 31/61/18 1/62/18
f 5/63/19 32/64/19 34/65/17 7/66/17
f 7/66/17 34/65/17 36/67/20 9/68/20
f 9/68/21 36/67/21 102/69/22 11/70/23
f 11/70/23 102/69/22 38/71/24 13/72/25
f 13/73/26 38/74/26 40/75/27 15/76/27
f 15/76/27 40/75/27 42/77/28 17/78/29
f 17/78/30 42/77/28 44/79/31 19/80/31
f 19/80/31 44/79/31 46/81/32 21/82/32
f 21/82/32 46/81/32 48/60/33 23/59/33
f 8/83/34 6/84/34 52/85/34 53/86/34
f 1/62/35 31/61/36 101/87/37 3/88/38
f 15/89/39 17/90/39 83/91/39 82/92/39
f 3/88/38 101/87/37 32/64/40 5/63/40
f 47/93/32 22/94/32 24/95/33 49/96/33
f 45/97/31 20/98/31 22/94/32 47/93/32
f 43/99/28 18/100/28 20/98/31 45/97/31
f 41/101/27 16/102/27 18/100/28 43/99/28
f 39/103/26 14/104/26 16/102/27 41/101/27
f 103/105/41 12/106/42 14/107/43 39/108/44
f 37/109/45 10/110/45 12/106/42 103/105/41
f 35/111/17 8/112/17 10/110/20 37/109/20
f 33/113/19 6/114/19 8/112/17 35/111/17
f 104/115/46 4/116/47 6/114/48 33/113/48
f 30/117/36 2/118/49 4/116/47 104/115/46
f 49/119/18 30/120/18 31/121/18 48/122/18
f 47/123/32 49/119/33 48/122/33 46/124/32
f 45/125/31 47/123/32 46/124/32 44/126/31
f 43/127/28 45/125/31 44/126/31 42/128/28
f 41/129/27 43/127/28 42/128/28 40/130/27
f 39/131/26 41/129/27 40/130/27 38/132/26
f 103/133/41 39/134/44 38/135/24 102/136/22
f 32/64/39 101/87/39 100/137/39
f 35/111/34 37/109/34 28/138/34 26/139/34
f 33/113/34 35/111/34 26/139/34 25/140/34
f 30/120/36 104/141/46 101/142/37 31/121/36
f 49/96/18 24/95/18 2/118/18 30/117/18
f 37/109/34 103/105/34 28/138/34
f 34/65/39 32/64/39 100/137/39 27/143/39
f 36/67/39 34/65/39 27/143/39 29/144/39
f 102/69/39 36/67/39 29/144/39
f 104/115/34 33/113/34 25/140/34
f 53/145/17 52/146/50 65/147/50 66/148/17
f 12/149/34 10/150/34 54/151/34 55/152/34
f 18/153/34 16/154/34 57/155/34 58/156/34
f 6/84/34 4/157/34 50/158/34 52/85/34
f 2/159/34 24/160/34 61/161/34 51/162/34
f 24/160/34 22/163/34 60/164/34 61/161/34
f 10/150/34 8/83/34 53/86/34 54/151/34
f 16/154/34 14/165/34 56/166/34 57/155/34
f 22/163/34 20/167/34 59/168/34 60/164/34
f 14/169/34 12/149/34 55/152/34 56/170/34
f 4/157/34 2/171/34 51/172/34 50/158/34
f 20/167/34 18/153/34 58/156/34 59/168/34
f 60/173/32 59/174/31 72/175/31 73/176/32
f 57/177/26 56/178/51 69/179/51 70/180/26
f 54/181/52 53/145/17 66/148/17 67/182/52
f 61/183/33 60/173/32 73/176/32 74/184/33
f 50/185/49 51/186/49 64/187/49 63/188/49
f 58/189/28 57/177/29 70/180/29 71/190/28
f 55/191/53 54/181/52 67/182/52 68/192/53
f 51/193/18 61/183/18 74/184/18 64/194/18
f 52/146/50 50/185/48 63/188/48 65/147/50
f 59/174/31 58/189/28 71/190/28 72/175/31
f 56/195/51 55/191/54 68/192/54 69/196/51
f 62/197/39 63/198/39 64/199/39
f 62/197/39 65/200/39 63/198/39
f 62/197/39 66/201/39 65/200/39
f 62/197/39 67/202/39 66/201/39
f 62/197/39 68/203/39 67/202/39
f 62/197/39 69/204/39 68/203/39
f 62/205/39 70/206/39 69/207/39
f 62/205/39 71/208/39 70/206/39
f 62/205/39 72/209/39 71/208/39
f 62/205/39 73/210/39 72/209/39
f 62/205/39 74/211/39 73/210/39
f 62/205/39 64/212/39 74/211/39
f 85/213/32 86/214/33 99/215/33 98/216/32
f 3/217/39 5/218/39 77/219/39 76/220/39
f 23/221/39 1/222/39 75/223/39 86/214/39
f 21/224/39 23/221/39 86/214/39 85/213/39
f 7/225/39 9/226/39 79/227/39 78/228/39
f 13/229/39 15/89/39 82/92/39 81/230/39
f 19/231/39 21/224/39 85/213/39 84/232/39
f 11/233/39 13/234/39 81/235/39 80/236/39
f 1/237/39 3/217/39 76/220/39 75/238/39
f 17/90/39 19/231/39 84/232/39 83/91/39
f 5/218/39 7/225/39 78/228/39 77/219/39
f 9/226/39 11/233/39 80/236/39 79/227/39
f 75/238/49 76/220/47 89/239/47 88/240/49
f 82/92/27 83/91/29 96/241/29 95/242/27
f 79/227/52 80/236/53 93/243/53 92/244/52
f 86/214/18 75/223/18 88/245/18 99/215/18
f 76/220/47 77/219/50 90/246/50 89/239/47
f 83/91/30 84/232/31 97/247/31 96/241/30
f 80/236/54 81/235/54 94/248/54 93/243/54
f 77/219/50 78/228/19 91/249/19 90/246/50
f 84/232/31 85/213/32 98/216/32 97/247/31
f 81/230/26 82/92/27 95/242/27 94/250/26
f 78/228/20 79/227/52 92/244/52 91/249/20
f 87/251/34 88/252/34 89/253/34
f 87/251/34 89/253/34 90/254/34
f 87/251/34 90/254/34 91/255/34
f 87/251/34 91/255/34 92/256/34
f 87/251/34 92/256/34 93/257/34
f 87/251/34 93/257/34 94/258/34
f 87/259/34 94/260/34 95/261/34
f 87/259/34 95/261/34 96/262/34
f 87/259/34 96/262/34 97/263/34
f 87/259/34 97/263/34 98/264/34
f 87/259/34 98/264/34 99/265/34
f 87/259/34 99/265/34 88/266/34
f 29/267/17 28/268/17 103/133/17 102/136/17
f 28/268/17 29/267/17 27/269/17 26/270/17
f 100/271/55 25/272/55 26/270/17 27/269/17
f 25/272/55 100/271/55 101/142/56 104/141/56
