# Blender v3.2.0 OBJ File: 'espinhos (1).blend'
# www.blender.org
mtllib espinhos 2(1).mtl
o Plane.001
v 0.205805 12.200808 0.407598
v -0.016319 12.245806 0.238020
v -0.179469 12.092204 0.410964
v 0.042655 12.047207 0.580543
v -0.015309 13.276213 1.333689
v -0.146575 13.325939 1.254858
v -0.238483 13.234249 1.350061
v -0.107217 13.184523 1.428892
v 0.564718 7.493891 0.048669
v 0.236746 7.392769 -0.380203
v -0.132201 7.074813 -0.082708
v 0.177966 7.047828 0.342722
v 1.292994 7.070709 -1.240920
v 1.434688 7.070709 -1.118750
v 1.443869 6.884147 -1.129398
v 1.302175 6.884147 -1.251568
v 1.124169 4.655222 0.505735
v 1.042510 4.655222 0.657416
v 0.998736 4.490286 0.633850
v 1.080395 4.490286 0.482169
v 0.867365 0.057106 -0.079143
v -0.557034 0.057106 -0.823091
v -1.240134 0.057106 0.484806
v 0.184265 0.057106 1.228754
v -1.579438 8.135777 0.432790
v -1.586669 8.135777 0.285296
v -1.579967 7.988258 0.284967
v -1.572736 7.988258 0.432461
v 1.815212 10.628155 0.353507
v 1.753694 10.628155 0.475545
v 1.735007 10.493099 0.466125
v 1.796525 10.493099 0.344086
v 0.305302 1.913952 0.609795
v -0.755618 1.729991 -0.005059
v -1.342633 1.527966 1.068272
v -0.281713 1.711926 1.683125
v -0.310586 9.669928 -0.318894
v 0.071448 9.565107 -0.183935
v 0.183124 9.468075 -0.575425
v -0.198910 9.572895 -0.710384
v -0.228308 3.524291 0.264481
v -1.128506 3.499228 -0.337710
v -1.706621 3.841200 0.512266
v -0.806423 3.866262 1.114456
v -0.136131 7.777707 0.444539
v -0.360504 7.755669 0.056319
v -0.035170 8.007267 -0.115708
v 0.187384 8.029305 0.235397
v 0.289669 5.282526 -0.391265
v 0.390791 5.456141 0.193775
v -0.146241 5.528312 0.321685
v -0.391438 5.473638 -0.338407
v 0.548751 6.215568 -0.521759
v 0.669198 6.360463 0.059765
v 0.008486 6.517633 0.205652
v 0.048541 6.585075 -0.465560
v -0.276424 4.650653 0.584123
v -0.857423 4.787411 0.081061
v -0.425925 4.519967 -0.360619
v 0.001106 4.197560 0.130663
v -0.581585 2.962088 1.374601
v -1.533782 2.615441 0.813863
v -0.924626 2.529392 -0.167359
v 0.027571 2.876039 0.393380
v -0.345984 8.316002 -0.088221
v 0.042720 8.342737 -0.009384
v -0.083759 8.444557 0.328561
v -0.435714 8.563378 0.230987
v -0.271785 9.129534 -0.513679
v 0.151320 9.129534 -0.408887
v 0.058637 9.332939 -0.034674
v -0.364468 9.332939 -0.139466
v 0.022606 9.997519 -0.629866
v 0.348416 9.796194 -0.501760
v 0.200491 9.795919 -0.125977
v -0.125319 9.997244 -0.254083
v 0.375858 10.625889 -0.407982
v 0.672803 10.473404 -0.302468
v 0.529982 10.435787 -0.061516
v 0.279730 10.634924 -0.125105
v 0.523976 10.895500 0.092517
v 0.282019 10.928425 -0.087301
v 0.491555 11.035862 -0.264239
v 0.683056 11.080022 -0.074575
v -0.044972 12.722520 1.093176
v -0.223633 12.790200 0.985881
v -0.098541 12.914996 0.856304
v 0.080120 12.847316 0.963598
v -0.086902 13.036870 1.327348
v -0.238466 13.094285 1.236326
v -0.132346 13.200152 1.126402
v 0.019217 13.142737 1.217423
v -0.041377 0.678646 1.446245
v -1.289707 0.678646 0.794256
v -0.691045 1.236482 -0.351972
v 0.557284 1.236482 0.300017
v 0.921508 10.576097 -0.151215
v 0.789278 10.612045 0.074450
v 0.843435 10.830334 0.095007
v 0.895651 10.839212 -0.146778
v -0.626683 7.924113 0.460644
v -0.676963 7.924113 0.166339
v -0.683880 8.256451 0.139775
v -0.621252 8.319331 0.422934
v -1.390682 7.973172 0.446864
v -1.400195 7.973172 0.252826
v -1.409011 8.167243 0.253258
v -1.399498 8.167243 0.447296
v 0.688032 6.640315 -0.767789
v 1.039717 6.668274 -0.478895
v 0.991865 7.064149 -0.402567
v 0.635653 7.091135 -0.731825
v 1.058713 6.790642 -1.078619
v 1.308635 6.790642 -0.863133
v 1.292441 7.119701 -0.844352
v 1.042519 7.119701 -1.059838
v 0.370747 4.587093 -0.037810
v 0.238030 4.531884 0.401728
v 0.313419 5.031751 0.453466
v 0.579563 5.009577 0.035774
v 0.834256 4.510899 0.267722
v 0.684199 4.510899 0.546454
v 0.764638 4.813988 0.589759
v 0.914695 4.813988 0.311027
vt 0.390282 0.060191
vt 0.369971 0.075436
vt 0.363286 0.057758
vt 0.378859 0.049082
vt 0.422320 0.108173
vt 0.406356 0.119725
vt 0.410901 0.099074
vt 0.420054 0.023176
vt 0.405006 0.040723
vt 0.387342 0.032842
vt 0.394193 0.012640
vt 0.434330 0.092423
vt 0.418704 0.094499
vt 0.414656 0.086739
vt 0.691416 0.356985
vt 0.698031 0.359280
vt 0.696202 0.388666
vt 0.374919 0.027911
vt 0.374166 0.009214
vt 0.368490 0.039613
vt 0.358395 0.042824
vt 0.349749 0.087649
vt 0.344254 0.061088
vt 0.458611 0.115489
vt 0.448023 0.131454
vt 0.432628 0.151344
vt 0.413506 0.172191
vt 0.386571 0.134818
vt 0.510908 0.198197
vt 0.501948 0.220208
vt 0.491889 0.210684
vt 0.469043 0.203548
vt 0.457414 0.223203
vt 0.429209 0.204178
vt 0.440836 0.179892
vt 0.482138 0.187207
vt 0.499874 0.173529
vt 0.525687 0.177770
vt 0.391899 0.092818
vt 0.374694 0.107981
vt 0.515918 0.156915
vt 0.479222 0.149237
vt 0.490692 0.131349
vt 0.455487 0.160782
vt 0.459462 0.245459
vt 0.480788 0.230752
vt 0.571070 0.246387
vt 0.544089 0.267830
vt 0.434680 0.051627
vt 0.421594 0.065131
vt 0.404128 0.076171
vt 0.477761 0.107372
vt 0.468761 0.123641
vt 0.448573 0.075415
vt 0.345273 0.042486
vt 0.406825 0.089472
vt 0.470533 0.132027
vt 0.466301 0.128652
vt 0.591603 0.214444
vt 0.585376 0.477193
vt 0.573933 0.425116
vt 0.607941 0.402926
vt 0.639222 0.454468
vt 0.412909 0.092855
vt 0.412723 0.092926
vt 0.412399 0.092846
vt 0.412623 0.092810
vt 0.486737 0.205982
vt 0.668965 0.422302
vt 0.643548 0.383904
vt 0.474507 0.127885
vt 0.470122 0.127897
vt 0.470065 0.128080
vt 0.469849 0.128037
vt 0.469903 0.127861
vt 0.703273 0.350306
vt 0.695505 0.350559
vt 0.686252 0.337397
vt 0.486731 0.210216
vt 0.486781 0.210179
vt 0.486717 0.210152
vt 0.486731 0.210162
vt 0.695913 0.356405
vt 0.696198 0.356315
vt 0.696453 0.356260
vt 0.696191 0.356300
vt 0.620883 0.488337
vt 0.970874 0.697745
vt 0.961697 0.695271
vt 0.960488 0.688335
vt 0.965731 0.687385
vt 0.358884 0.032459
vt 0.355290 0.022594
vt 0.362168 0.027872
vt 0.362446 0.031471
vt 0.483235 0.208294
vt 0.487011 0.213474
vt 0.665118 0.351211
vt 0.724044 0.366979
vt 0.517205 0.285445
vt 0.536336 0.312420
vt 0.510910 0.330068
vt 0.490602 0.304288
vt 0.624041 0.234133
vt 0.591907 0.267373
vt 0.560559 0.294493
vt 0.557527 0.341345
vt 0.526777 0.362075
vt 0.647082 0.266749
vt 0.613487 0.290680
vt 0.585706 0.317899
vt 0.797421 0.593287
vt 0.771921 0.625154
vt 0.822717 0.562886
vt 0.883135 0.501130
vt 0.850603 0.532621
vt 0.965038 0.674564
vt 0.953209 0.681449
vt 0.921178 0.651551
vt 0.942450 0.632650
vt 0.904269 0.674682
vt 0.890551 0.702675
vt 0.969724 0.616585
vt 0.947820 0.694313
vt 0.948789 0.713088
vt 0.984250 0.674160
vt 0.358197 0.035020
vt 0.348485 0.029989
vt 0.361302 0.015006
vt 0.368018 0.026903
vt 0.365112 0.034263
vt 0.486745 0.210105
vt 0.486631 0.210091
vt 0.486903 0.210207
vt 0.486688 0.210293
vt 0.469807 0.127302
vt 0.469253 0.128073
vt 0.470143 0.128650
vt 0.470737 0.127850
vt 0.412764 0.092340
vt 0.411487 0.092304
vt 0.412585 0.093547
vt 0.413819 0.093247
vn 0.9707 -0.0350 -0.2375
vn 0.0632 0.3996 0.9145
vn 0.1985 0.3200 0.9264
vn 0.9374 0.2205 -0.2696
vn 0.8070 0.1825 0.5616
vn -0.4144 0.4024 0.8163
vn 0.3048 0.4141 0.8577
vn -0.9431 0.3120 0.1148
vn -0.3182 -0.0679 -0.9456
vn -0.2184 -0.2044 -0.9542
vn -0.9630 -0.1072 0.2471
vn 0.5559 -0.1474 -0.8181
vn 0.8756 0.2929 -0.3842
vn 0.5073 -0.6064 -0.6122
vn -0.1337 -0.6360 0.7600
vn 0.0950 0.5548 0.8265
vn -0.0492 -0.0949 0.9943
vn -0.3376 0.1343 -0.9316
vn -0.9139 -0.1254 0.3862
vn 0.9412 0.3196 -0.1094
vn 0.2315 0.0622 0.9709
vn 0.4338 -0.5011 -0.7488
vn 0.7650 -0.2348 0.5998
vn -0.6114 -0.0054 0.7913
vn -0.7483 0.0118 -0.6633
vn -0.7741 0.2581 -0.5780
vn 0.4746 0.3355 0.8138
vn -0.6707 0.6111 0.4204
vn -0.2056 0.6750 0.7086
vn -0.7403 -0.5089 -0.4392
vn 0.1763 0.1781 -0.9681
vn -0.1377 0.5177 -0.8444
vn -0.9854 -0.0874 -0.1459
vn -0.0377 -0.2583 0.9653
vn 0.8725 0.3501 0.3408
vn 0.8712 0.0407 -0.4892
vn 0.0042 0.2320 0.9727
vn -0.8253 0.5620 -0.0551
vn 0.7995 0.5195 0.3014
vn -0.0475 -0.0972 0.9941
vn -0.4583 -0.0489 -0.8874
vn 0.5344 0.3328 0.7769
vn -0.8295 0.3349 0.4469
vn -0.0972 -0.1422 -0.9851
vn 0.7753 -0.6230 -0.1037
vn -0.1559 -0.5492 -0.8210
vn 0.1850 -0.6780 0.7114
vn 0.7123 0.5768 0.3999
vn 0.8198 -0.5181 0.2437
vn 0.8472 -0.3083 -0.4326
vn 0.5647 0.6088 -0.5572
vn 0.7338 -0.3611 -0.5755
vn -0.2431 0.3735 -0.8952
vn -0.0543 0.3860 -0.9209
vn 0.9558 0.2871 -0.0636
vn 0.4732 0.2871 0.8329
vn 0.2145 -0.6877 0.6936
vn 0.6971 -0.6877 -0.2028
vn -0.1020 -0.5817 0.8070
vn -0.9938 -0.1046 0.0365
vn -0.8823 0.1848 0.4329
vn -0.3004 0.6269 -0.7188
vn 0.0465 0.5572 -0.8291
vn 0.8132 0.5572 -0.1680
vn 0.8629 -0.4522 -0.2257
vn 0.0962 -0.4522 -0.8867
vn 0.4833 -0.6392 -0.5982
vn -0.6408 0.5110 0.5729
vn -0.6938 0.5110 -0.5075
vn -0.6447 -0.5695 -0.5099
vn -0.5917 -0.5695 0.5705
vn 0.8535 0.4811 -0.2002
vn 0.3665 0.4716 0.8020
vn 0.1891 -0.6297 0.7534
vn 0.7215 -0.6470 -0.2466
vn 0.7778 0.6279 -0.0284
vn 0.7150 0.6129 0.3363
vn -0.1955 0.9578 -0.2105
vn -0.8331 0.3218 0.4499
vn 0.0775 -0.0231 0.9967
vn 0.3719 -0.6367 0.6755
vn -0.7669 -0.6367 0.0807
vn -0.2075 -0.4428 -0.8723
vn 0.8344 -0.4428 -0.3281
vn -0.3684 -0.7219 -0.5857
vn -0.4910 0.4772 -0.7289
vn 0.1592 -0.5248 0.8362
vn -0.5371 -0.3153 -0.7824
vn -0.4531 0.0353 -0.8908
vn 0.7545 -0.3064 -0.5804
vn 0.4619 0.0287 0.8865
vn -0.8884 0.3654 0.2778
vn -0.2865 0.3984 -0.8713
vn 0.8471 -0.3110 -0.4309
vn 0.3246 -0.3257 0.8880
vn -0.8061 0.3853 0.4491
vn -0.1853 0.4989 -0.8466
vn 0.9402 0.3344 -0.0652
vn -0.9757 -0.2147 -0.0447
vn 0.0903 -0.4796 0.8729
vn 0.1648 -0.5599 0.8120
vn -0.9848 -0.1244 0.1216
vn -0.9843 -0.1420 0.1051
vn 0.1670 -0.5786 0.7983
vn -0.1790 0.6609 -0.7288
vn 0.9734 0.2261 -0.0373
vn -0.1798 0.6786 -0.7121
vn 0.9697 0.2431 -0.0217
vn 0.2845 -0.2048 0.9365
vn -0.9332 -0.1953 0.3018
vn -0.3212 0.3924 -0.8619
vn 0.8914 0.3886 -0.2333
vn -0.0777 -0.6863 0.7232
vn -0.1587 -0.7099 -0.6862
vn -0.2243 0.6615 -0.7156
vn -0.1438 0.7087 0.6907
vn -0.2923 -0.6529 -0.6988
vn 0.7316 -0.6449 0.2210
vn 0.6052 0.7165 0.3469
vn -0.4023 0.7301 -0.5524
vn 0.3734 -0.7195 -0.5856
vn -0.2490 -0.7352 0.6305
vn 0.0785 0.5827 0.8089
vn 0.7101 0.5763 -0.4044
usemtl espinhos
s 1
f 41/1/1 44/2/2 61/3/3 64/4/4
f 50/5/5 51/6/6 119/7/7
f 43/8/8 42/9/9 63/10/10 62/11/11
f 49/12/12 120/13/13 117/14/14
f 98/15/15 99/16/16 81/17/17
f 62/11/11 63/10/10 34/18/18 35/19/19
f 63/10/10 64/4/4 33/20/20 34/18/18
f 64/4/4 61/3/3 36/21/21 33/20/20
f 44/2/2 43/22/8 62/23/11 61/3/3
f 53/24/22 54/25/23 50/5/5 49/12/12
f 54/25/23 55/26/24 51/6/6 50/5/5
f 55/26/24 56/27/25 52/28/26 51/6/6
f 67/29/27 68/30/28 104/31/29
f 46/32/30 47/33/31 10/34/32 11/35/33
f 67/29/27 45/36/34 48/37/35
f 66/38/36 67/29/27 48/37/35
f 57/39/37 58/40/38 43/22/8 44/2/2
f 66/38/36 48/37/35 47/41/31
f 47/41/31 48/37/35 9/42/39 10/43/32
f 48/37/35 45/36/34 12/44/40 9/42/39
f 66/45/36 47/33/31 65/46/41
f 71/47/42 72/48/43 68/30/28 67/29/27
f 58/49/38 59/50/44 42/9/9 43/8/8
f 59/50/44 60/51/45 41/1/1 42/9/9
f 60/51/45 57/39/37 44/2/2 41/1/1
f 56/52/25 109/53/46 53/24/22
f 56/52/25 53/24/22 49/12/12 52/54/26
f 11/35/33 10/34/32 56/27/25
f 11/35/33 56/27/25 55/26/24
f 11/35/33 55/26/24 12/44/40
f 65/46/41 47/33/31 46/32/30
f 61/3/3 62/23/11 35/55/19 36/21/21
f 12/44/40 55/26/24 54/25/23
f 118/56/47 57/39/37 60/51/45
f 117/14/14 118/56/47 60/51/45
f 59/50/44 117/14/14 60/51/45
f 111/57/48 54/25/23 110/58/49
f 70/59/50 71/47/42 67/29/27 66/38/36
f 119/7/7 51/6/6 57/39/37
f 118/56/47 119/7/7 57/39/37
f 42/9/9 41/1/1 64/4/4 63/10/10
f 49/12/12 117/14/14 59/50/44
f 52/54/26 49/12/12 59/50/44
f 52/54/26 59/50/44 58/49/38
f 100/60/51 78/61/52 77/62/53 83/63/54
f 45/36/34 46/32/30 11/35/33 12/44/40
f 17/64/55 18/65/56 19/66/57 20/67/58
f 53/24/22 109/53/46 110/58/49 54/25/23
f 67/29/27 104/31/29 101/68/59 45/36/34
f 82/69/60 80/70/61 81/17/17
f 10/43/32 9/42/39 111/57/48 112/71/62
f 13/72/63 14/73/64 15/74/65 16/75/66
f 100/76/51 97/77/67 78/78/52
f 25/79/68 26/80/69 27/81/70 28/82/71
f 51/6/6 52/28/26 58/40/38 57/39/37
f 9/42/39 12/44/40 54/25/23 111/57/48
f 29/83/72 30/84/73 31/85/74 32/86/75
f 100/60/51 83/63/54 84/87/76
f 5/88/77 6/89/78 7/90/79 8/91/80
f 24/92/81 23/93/82 22/94/83 21/95/84
f 50/5/5 119/7/7 120/13/13 49/12/12
f 45/36/34 101/68/59 102/96/85 46/32/30
f 103/97/86 65/46/41 46/32/30 102/96/85
f 98/15/15 81/17/17 80/70/61 79/98/87
f 77/62/53 80/70/61 82/69/60 83/63/54
f 68/30/28 65/46/41 103/97/86 104/31/29
f 97/77/67 98/15/15 79/98/87 78/78/52
f 100/76/51 84/99/76 81/17/17 99/16/16
f 72/48/43 69/100/88 65/46/41 68/30/28
f 40/101/89 39/102/90 70/103/50 69/100/88
f 39/104/90 38/105/91 71/47/42 70/59/50
f 38/105/91 37/106/92 72/48/43 71/47/42
f 37/106/92 40/101/89 69/100/88 72/48/43
f 73/107/93 74/108/94 39/102/90 40/101/89
f 74/109/94 75/110/95 38/105/91 39/104/90
f 75/110/95 76/111/96 37/106/92 38/105/91
f 76/111/96 73/107/93 40/101/89 37/106/92
f 78/78/52 79/98/87 75/110/95 74/109/94
f 79/98/87 80/70/61 76/111/96 75/110/95
f 80/70/61 77/62/53 73/107/93 76/111/96
f 69/100/88 70/103/50 66/45/36 65/46/41
f 84/87/76 83/63/54 2/112/97 1/113/98
f 83/63/54 82/69/60 3/114/99 2/112/97
f 81/17/17 84/99/76 1/115/98 4/116/100
f 82/69/60 81/17/17 4/116/100 3/114/99
f 89/117/101 90/118/102 86/119/103 85/120/104
f 2/112/97 3/114/99 86/119/103 87/121/105
f 1/113/98 2/112/97 87/121/105 88/122/106
f 4/116/100 1/115/98 88/123/106 85/120/104
f 90/118/102 91/124/107 87/121/105 86/119/103
f 91/124/107 92/125/108 88/122/106 87/121/105
f 92/126/108 89/117/101 85/120/104 88/123/106
f 3/114/99 4/116/100 85/120/104 86/119/103
f 8/91/80 7/90/79 90/118/102 89/117/101
f 7/90/79 6/89/78 91/124/107 90/118/102
f 6/89/78 5/88/77 92/125/108 91/124/107
f 5/88/77 8/91/80 89/117/101 92/126/108
f 93/127/109 94/128/110 23/93/82 24/92/81
f 94/129/110 95/130/111 22/94/83 23/93/82
f 95/130/111 96/131/112 21/95/84 22/94/83
f 96/131/112 93/127/109 24/92/81 21/95/84
f 36/21/21 35/55/19 94/128/110 93/127/109
f 35/19/19 34/18/18 95/130/111 94/129/110
f 34/18/18 33/20/20 96/131/112 95/130/111
f 33/20/20 36/21/21 93/127/109 96/131/112
f 98/15/15 31/85/74 30/84/73 99/16/16
f 99/16/16 30/84/73 29/83/72 100/76/51
f 100/76/51 29/83/72 32/86/75 97/77/67
f 77/62/53 78/61/52 74/108/94 73/107/93
f 102/96/85 101/68/59 105/132/113 106/133/114
f 103/97/86 102/96/85 106/133/114 107/134/115
f 104/31/29 103/97/86 107/134/115 108/135/116
f 101/68/59 104/31/29 108/135/116 105/132/113
f 97/77/67 32/86/75 31/85/74 98/15/15
f 28/82/71 27/81/70 106/133/114 105/132/113
f 27/81/70 26/80/69 107/134/115 106/133/114
f 26/80/69 25/79/68 108/135/116 107/134/115
f 25/79/68 28/82/71 105/132/113 108/135/116
f 113/136/117 114/137/118 110/58/49 109/53/46
f 114/137/118 115/138/119 111/57/48 110/58/49
f 115/138/119 116/139/120 112/71/62 111/57/48
f 116/139/120 113/136/117 109/53/46 112/71/62
f 16/75/66 15/74/65 114/137/118 113/136/117
f 15/74/65 14/73/64 115/138/119 114/137/118
f 14/73/64 13/72/63 116/139/120 115/138/119
f 13/72/63 16/75/66 113/136/117 116/139/120
f 121/140/121 122/141/122 118/56/47 117/14/14
f 122/141/122 123/142/123 119/7/7 118/56/47
f 123/142/123 124/143/124 120/13/13 119/7/7
f 124/143/124 121/140/121 117/14/14 120/13/13
f 20/67/58 19/66/57 122/141/122 121/140/121
f 19/66/57 18/65/56 123/142/123 122/141/122
f 18/65/56 17/64/55 124/143/124 123/142/123
f 17/64/55 20/67/58 121/140/121 124/143/124
f 10/43/32 112/71/62 109/53/46 56/52/25
