# Blender v3.2.0 OBJ File: 'espinhos (1).blend'
# www.blender.org
mtllib espinhos 3(1).mtl
o Plane
v -2.547070 10.535510 0.600222
v -2.591124 10.541551 0.490778
v -2.555043 10.430970 0.470152
v -2.510989 10.424930 0.579596
v -2.099125 10.733361 0.455855
v -2.160469 10.741773 0.303455
v -2.110228 10.587790 0.274734
v -2.048883 10.579379 0.427133
v 0.849864 3.716630 1.452339
v 0.663404 3.716630 1.589855
v 0.672244 3.485424 1.601841
v 0.858704 3.485424 1.464325
v 0.672811 3.777989 1.143466
v 0.434485 3.777989 1.335494
v 0.366770 3.455363 1.271490
v 0.721792 3.413161 1.129807
v -0.397454 5.648581 -0.396939
v -0.286974 5.648581 -0.431534
v -0.288988 5.533007 -0.437967
v -0.399468 5.533007 -0.403372
v -0.347748 5.683447 -0.055301
v -0.132951 5.683447 -0.122562
v -0.136868 5.458747 -0.135069
v -0.351665 5.458747 -0.067809
v -0.265578 5.717885 0.191131
v 0.010220 5.422333 0.156500
v -0.257448 5.368524 0.208004
v -0.408352 10.923788 -0.111861
v -0.447603 10.923788 -0.029708
v -0.430024 10.834848 -0.021309
v -0.390773 10.834848 -0.103462
v -0.708026 10.875781 -0.284879
v -0.770492 10.875781 -0.154138
v -0.742517 10.734239 -0.140771
v -0.680051 10.734239 -0.271513
v -0.857634 10.812574 -0.368257
v -0.964923 10.832019 -0.231154
v -0.909941 10.702353 -0.211298
v -0.837884 10.681498 -0.341898
v 0.488404 9.274129 -1.842167
v 0.562816 9.274129 -1.799652
v 0.588831 9.206346 -1.845185
v 0.514419 9.206346 -1.887699
v 0.206805 9.021985 -1.488025
v 0.392583 8.972361 -1.383414
v 0.451160 8.837845 -1.487874
v 0.249753 8.842123 -1.550020
v 0.192358 3.245160 0.354095
v 0.050262 3.027297 0.863753
v 0.530863 2.993647 1.088114
v 0.743159 3.255251 0.637946
v 0.353838 2.433563 -0.050123
v 0.020344 2.148960 0.728259
v 0.812810 2.285100 1.117565
v 1.146304 2.569703 0.339183
v -1.739735 10.820336 0.265065
v -1.855633 10.820336 0.119372
v -1.856846 10.634173 0.120338
v -1.740948 10.634173 0.266030
v -1.319398 10.821864 -0.061695
v -1.442719 10.821864 -0.216718
v -1.444010 10.623780 -0.215691
v -1.320690 10.623780 -0.060668
v -1.155390 10.801188 -0.199776
v -1.212614 10.791206 -0.331818
v -1.257519 10.634586 -0.340198
v -1.137376 10.634348 -0.212822
v -0.872343 10.630156 -0.429615
v -0.980623 10.692806 -0.522873
v -1.086807 10.557138 -0.503680
v -0.981545 10.541733 -0.374345
v -0.739764 10.501570 -0.528482
v -0.847632 10.545366 -0.697334
v -0.983102 10.399263 -0.648688
v -0.875234 10.355467 -0.479836
v -0.632882 10.367374 -0.632086
v -0.740302 10.410988 -0.800237
v -0.875208 10.265491 -0.751793
v -0.767788 10.221878 -0.583642
v -0.526455 10.233750 -0.735248
v -0.633429 10.277183 -0.902702
v -0.767776 10.132289 -0.854458
v -0.660802 10.088857 -0.687005
v -0.420727 10.101002 -0.837733
v -0.527258 10.144255 -1.004493
v -0.661049 9.999962 -0.956450
v -0.554518 9.956709 -0.789689
v -0.218847 9.814129 -0.969379
v -0.303794 9.814129 -1.172368
v -0.478836 9.702707 -1.099116
v -0.393890 9.702707 -0.896127
v 0.107032 9.293984 -1.072893
v -0.001318 9.293984 -1.331807
v -0.224587 9.151866 -1.238374
v -0.116236 9.151866 -0.979460
v 0.225786 9.019949 -1.142579
v 0.115800 9.064564 -1.362862
v -0.015740 8.877167 -1.303608
v 0.038723 8.873543 -1.043729
v 0.034505 8.586302 -1.072246
v 0.256568 8.653356 -0.990167
v 0.406190 8.549494 -1.233430
v 0.146141 8.486696 -1.296773
v 0.019415 8.252954 -0.875673
v 0.331706 8.339608 -0.768058
v 0.468479 8.183417 -1.039192
v 0.156187 8.096763 -1.146807
v 0.082886 7.216729 -0.240684
v 0.403948 7.305818 -0.130046
v 0.544562 7.145240 -0.408795
v 0.223500 7.056151 -0.519433
v -0.093739 6.371819 0.233971
v 0.258759 6.371819 0.415818
v 0.415691 6.171427 0.111616
v 0.063193 6.171427 -0.070231
v -0.155940 5.830067 0.447215
v 0.128668 5.898023 0.587670
v 0.283599 5.728399 0.258511
v -0.040413 5.756367 0.147761
v 0.045283 5.354271 0.846153
v 0.331713 5.269347 0.502588
v -0.022073 5.137177 0.307417
v -0.240937 5.199791 0.556485
v 0.092114 4.703670 1.050700
v 0.461542 4.703670 0.659435
v 0.077280 4.602315 0.296619
v -0.292148 4.602315 0.687884
v 0.214435 4.080078 1.118302
v 0.531499 4.056748 0.749792
v 0.154511 3.988620 0.410698
v -0.078626 3.860062 0.766333
v 0.160624 0.915184 -0.390805
v -0.149252 0.915184 0.466953
v 0.598001 0.467402 0.736908
v 0.907878 0.467402 -0.120850
v -2.643970 10.492710 0.631452
v -2.684284 10.498238 0.531300
v -2.651266 10.397045 0.512425
v -2.610952 10.391518 0.612577
v 0.947175 3.675040 1.680336
v 0.852481 3.675040 1.750173
v 0.856971 3.557622 1.756261
v 0.951664 3.557622 1.686423
v -0.418187 5.634037 -0.539445
v -0.351220 5.634037 -0.560415
v -0.352442 5.563983 -0.564314
v -0.419408 5.563983 -0.543345
v -0.322922 10.937474 -0.062538
v -0.355555 10.937474 0.005764
v -0.340940 10.863530 0.012747
v -0.308306 10.863530 -0.055555
v 0.553707 9.330875 -1.921747
v 0.598212 9.330875 -1.896319
v 0.613771 9.290335 -1.923552
v 0.569266 9.290335 -1.948980
v -1.900761 10.817310 0.387850
v -1.992134 10.819561 0.230111
v -1.965679 10.640072 0.212225
v -1.874305 10.637821 0.369965
v -0.317077 9.970898 -0.938237
v -0.408583 9.993786 -1.116553
v -0.555903 9.869558 -1.056900
v -0.464396 9.846670 -0.878583
v 0.100011 6.971496 -0.089727
v 0.422573 7.016498 0.047967
v 0.564043 6.846337 -0.227828
v 0.241481 6.801335 -0.365522
v 0.543656 1.706069 -0.339701
v 0.132281 1.539948 0.624221
v 1.104369 1.354446 1.007112
v 1.515744 1.520567 0.043190
v 0.093391 0.019640 -0.672337
v -0.300523 0.019640 0.418042
v 0.649383 0.019640 0.761209
v 1.043297 0.019640 -0.329170
vt 0.598191 0.652363
vt 0.581816 0.675572
vt 0.503114 0.608179
vt 0.522710 0.585156
vt 0.687513 0.657644
vt 0.659845 0.642271
vt 0.677816 0.627274
vt 0.710485 0.645715
vt 0.932392 0.943755
vt 0.926863 0.936473
vt 0.927187 0.931113
vt 0.936897 0.932137
vt 0.924000 0.939814
vt 0.921057 0.951106
vt 0.919006 0.940225
vt 0.924866 0.936987
vt 0.921525 0.934447
vt 0.905731 0.901867
vt 0.917454 0.894534
vt 0.880815 0.934373
vt 0.887321 0.922089
vt 0.895389 0.911107
vt 0.896147 0.888401
vt 0.908029 0.878231
vt 0.863804 0.926056
vt 0.872874 0.913590
vt 0.883803 0.900553
vt 0.222191 0.382886
vt 0.222035 0.382752
vt 0.221605 0.381978
vt 0.223271 0.382298
vt 0.222047 0.383028
vt 0.222458 0.383790
vt 0.221892 0.382895
vt 0.220896 0.383450
vt 0.213759 0.365303
vt 0.236279 0.378820
vt 0.228272 0.395242
vt 0.201425 0.397475
vt 0.432028 0.442937
vt 0.432028 0.442932
vt 0.432043 0.442887
vt 0.432073 0.442952
vt 0.432023 0.442937
vt 0.432007 0.442982
vt 0.432023 0.442931
vt 0.431977 0.442916
vt 0.431943 0.441493
vt 0.433224 0.442832
vt 0.432209 0.444915
vt 0.430475 0.443019
vt 0.426394 0.429340
vt 0.442333 0.441752
vt 0.441739 0.461408
vt 0.415513 0.446853
vt 0.840348 0.804171
vt 0.840348 0.804172
vt 0.840347 0.804178
vt 0.840356 0.804178
vt 0.840347 0.804173
vt 0.840339 0.804168
vt 0.840342 0.804169
vt 0.840329 0.804144
vt 0.840621 0.804577
vt 0.840049 0.804464
vt 0.839929 0.803564
vt 0.840826 0.803776
vt 0.832374 0.799629
vt 0.844886 0.795114
vt 0.846665 0.809017
vt 0.837341 0.809813
vt 0.644140 0.685371
vt 0.644147 0.685376
vt 0.644258 0.685427
vt 0.644128 0.685404
vt 0.644138 0.685379
vt 0.644016 0.685330
vt 0.644137 0.685390
vt 0.644149 0.685353
vt 0.646859 0.680958
vt 0.649341 0.687618
vt 0.640609 0.689253
vt 0.641202 0.683865
vt 0.267033 0.275528
vt 0.219399 0.317985
vt 0.168644 0.262291
vt 0.210228 0.221217
vt 0.303645 0.231703
vt 0.250605 0.174644
vt 0.338512 0.194946
vt 0.309761 0.126856
vt 0.175191 0.354268
vt 0.109748 0.311453
vt 0.135262 0.209224
vt 0.175800 0.190620
vt 0.217513 0.142078
vt 0.248233 0.057429
vt 0.049648 0.232258
vt 0.884890 0.878915
vt 0.895415 0.867081
vt 0.851278 0.914382
vt 0.862448 0.902809
vt 0.873880 0.891142
vt 0.851509 0.847572
vt 0.863727 0.835862
vt 0.818016 0.884516
vt 0.829596 0.872701
vt 0.840170 0.860239
vt 0.835814 0.830441
vt 0.850395 0.823628
vt 0.805287 0.870788
vt 0.811264 0.858658
vt 0.822418 0.845161
vt 0.823408 0.797523
vt 0.815488 0.811063
vt 0.798172 0.793976
vt 0.812284 0.781867
vt 0.785921 0.837060
vt 0.771014 0.841727
vt 0.757184 0.828854
vt 0.770574 0.816779
vt 0.801463 0.824649
vt 0.784253 0.805488
vt 0.786542 0.780180
vt 0.800508 0.768245
vt 0.745542 0.815636
vt 0.759024 0.803796
vt 0.772679 0.791987
vt 0.774853 0.766487
vt 0.788892 0.754697
vt 0.733941 0.802367
vt 0.747457 0.790547
vt 0.760998 0.778520
vt 0.763009 0.752498
vt 0.777585 0.741107
vt 0.722474 0.789125
vt 0.735945 0.777564
vt 0.748984 0.765153
vt 0.752045 0.739267
vt 0.767963 0.727078
vt 0.711368 0.775991
vt 0.723500 0.764065
vt 0.736421 0.752318
vt 0.741985 0.726335
vt 0.757902 0.714223
vt 0.698234 0.765733
vt 0.711141 0.751211
vt 0.726026 0.738640
vt 0.708402 0.682534
vt 0.728877 0.667611
vt 0.656334 0.730177
vt 0.673841 0.713574
vt 0.691068 0.698345
vt 0.638348 0.708899
vt 0.658133 0.695473
vt 0.670773 0.677812
vt 0.639274 0.656942
vt 0.616098 0.632253
vt 0.637750 0.614551
vt 0.660603 0.596016
vt 0.624010 0.672525
vt 0.610984 0.692386
vt 0.542816 0.561532
vt 0.522159 0.542730
vt 0.499970 0.566214
vt 0.450273 0.520616
vt 0.475133 0.494844
vt 0.565283 0.538832
vt 0.588754 0.518424
vt 0.546553 0.518403
vt 0.570550 0.495465
vt 0.480545 0.589462
vt 0.767211 0.850521
vt 0.776676 0.858001
vt 0.788297 0.868410
vt 0.140208 0.148690
vt 0.100662 0.093772
vt 0.150915 0.136860
vt 0.145653 0.147719
vt 0.316188 0.340699
vt 0.345113 0.304816
vt 0.278957 0.379093
vt 0.130878 0.165445
vt 0.074897 0.128779
vt 0.416281 0.486199
vt 0.393293 0.517248
vt 0.344096 0.491890
vt 0.370219 0.456438
vt 0.251342 0.416836
vt 0.366455 0.232878
vt 0.146105 0.068828
vt 0.172667 0.136261
vt 0.160398 0.160610
vt 0.389445 0.357616
vt 0.357801 0.386950
vt 0.422278 0.398507
vt 0.463939 0.436047
vt 0.325247 0.421071
vt 0.292039 0.457624
vt 0.424768 0.331340
vt 0.390396 0.286952
vt 0.397536 0.422116
vt 0.454834 0.380667
vt 0.428061 0.549011
vt 0.522829 0.448198
vt 0.499522 0.472582
vt 0.487526 0.419988
vn 0.9216 -0.0741 -0.3811
vn 0.3648 0.5394 0.7590
vn 0.3641 0.5057 0.7821
vn 0.9300 -0.1406 -0.3396
vn -0.4675 -0.1205 0.8757
vn -0.9307 0.0425 0.3632
vn 0.3960 0.4060 0.8236
vn 0.7159 0.4428 0.5398
vn -0.4886 0.2908 0.8226
vn -0.1434 -0.7671 0.6253
vn 0.4224 -0.7190 0.5520
vn -0.0086 0.6021 0.7984
vn -0.9100 0.3486 -0.2244
vn -0.5349 0.6743 -0.5091
vn -0.5649 -0.7093 -0.4217
vn -0.1039 -0.6468 -0.7555
vn 0.4262 -0.7169 0.5517
vn -0.0028 0.6053 0.7960
vn -0.5310 0.6775 -0.5090
vn -0.1016 -0.6463 -0.7563
vn 0.4458 -0.6355 0.6304
vn 0.2188 0.6877 0.6923
vn -0.4627 0.7624 -0.4524
vn -0.2999 -0.6846 -0.6643
vn 0.8016 0.5505 0.2332
vn 0.8403 -0.4608 0.2856
vn 0.7090 -0.6867 -0.1603
vn 0.6939 0.6926 -0.1971
vn -0.0140 0.5505 0.8347
vn -0.4254 0.6781 0.5994
vn 0.0247 -0.4608 0.8871
vn -0.4138 -0.6708 0.6154
vn 0.9274 -0.3568 0.1122
vn 0.7866 0.6165 0.0349
vn -0.3579 0.5772 0.7340
vn -0.4742 -0.4052 0.7816
vn -0.6945 0.5686 -0.4409
vn -0.7130 -0.4917 -0.4999
vn -0.7363 -0.6752 -0.0445
vn -0.7123 0.7011 0.0321
vn 0.3190 0.5686 -0.7582
vn 0.6034 0.7011 -0.3799
vn 0.3005 -0.4917 -0.8173
vn 0.5794 -0.6752 -0.4565
vn -0.7363 -0.6760 0.0286
vn -0.7455 0.6610 0.0853
vn 0.6060 0.6926 -0.3912
vn 0.6143 -0.6533 -0.4426
vn -0.8085 -0.5605 -0.1797
vn -0.7724 0.6339 0.0400
vn 0.0269 0.3680 -0.9294
vn 0.4888 -0.4375 -0.7547
vn 0.6769 0.6753 -0.2928
vn 0.8916 -0.4109 -0.1902
vn 0.5348 -0.6633 -0.5235
vn 0.2634 0.7099 -0.6532
vn 0.1975 0.6753 0.7106
vn -0.3427 0.7099 0.6153
vn 0.4122 -0.4109 0.8132
vn -0.0712 -0.6633 0.7450
vn 0.4988 -0.6853 -0.5307
vn 0.2050 0.6942 -0.6899
vn -0.3893 0.7212 0.5730
vn -0.0987 -0.6699 0.7358
vn 0.7286 -0.6376 -0.2502
vn 0.2547 0.6801 -0.6875
vn -0.2259 0.8470 0.4812
vn 0.0731 -0.5335 0.8426
vn -0.3697 0.8233 -0.4306
vn -0.0451 -0.0224 -0.9987
vn -0.3373 -0.4450 -0.8296
vn -0.7300 0.6778 -0.0881
vn 0.5587 0.8233 0.0998
vn 0.4863 0.6364 0.5987
vn 0.8833 -0.0224 -0.4683
vn 0.8717 -0.4613 -0.1654
vn -0.3367 -0.4208 -0.8423
vn -0.5554 0.7347 -0.3895
vn 0.6977 0.5714 0.4321
vn 0.8717 -0.4302 -0.2346
vn -0.4235 0.2059 -0.8822
vn 0.9035 0.3193 -0.2858
vn 0.8365 0.4838 -0.2573
vn -0.4111 0.2973 -0.8618
vn -0.9174 -0.1582 0.3651
vn -0.9271 -0.1464 0.3450
vn 0.2608 -0.1844 0.9476
vn 0.3151 0.0495 0.9478
vn 0.9349 -0.0135 -0.3547
vn -0.2239 0.2406 -0.9444
vn -0.8908 0.0107 0.4543
vn 0.4845 -0.2253 0.8453
vn 0.4182 -0.7076 0.5696
vn 0.4290 0.7074 0.5618
vn -0.4520 0.7069 -0.5440
vn -0.4618 -0.7072 -0.5354
vn 0.4490 -0.7102 0.5422
vn 0.4673 0.7160 0.5186
vn -0.3736 0.7064 -0.6012
vn -0.4027 -0.6898 -0.6017
vn 0.2018 -0.7193 0.6648
vn 0.2298 0.7755 0.5880
vn -0.3246 0.7423 -0.5862
vn -0.5215 -0.5984 -0.6082
vn 0.9981 0.0482 0.0372
vn 0.0398 -0.8105 0.5844
vn -0.1167 -0.6185 0.7771
vn 0.8125 0.3902 0.4332
vn -0.0314 0.6775 -0.7348
vn 0.0481 0.7043 -0.7083
vn -0.8389 -0.3447 -0.4212
vn -0.8810 -0.2943 -0.3704
vn -0.0935 -0.6567 0.7483
vn 0.8406 0.3507 0.4129
vn 0.0968 0.6527 -0.7514
vn -0.8373 -0.3547 -0.4160
vn -0.0936 -0.6567 0.7483
vn -0.0915 -0.6592 0.7464
vn 0.8423 0.3482 0.4113
vn 0.0983 0.6507 -0.7530
vn -0.8355 -0.3571 -0.4176
vn -0.2174 -0.4851 0.8470
vn 0.8338 0.4261 0.3511
vn 0.1797 0.5375 -0.8239
vn -0.8329 -0.2816 -0.4765
vn -0.3236 -0.2926 0.8998
vn 0.7989 0.4191 0.4314
vn 0.2562 0.4173 -0.8719
vn -0.8676 -0.2951 -0.4003
vn -0.2971 -0.3671 0.8815
vn 0.8361 0.3635 0.4108
vn 0.2940 0.3515 -0.8888
vn -0.8265 -0.3670 -0.4269
vn 0.0148 0.6529 -0.7573
vn -0.8596 -0.2476 -0.4469
vn -0.4134 -0.4726 -0.7783
vn -0.3680 -0.4355 -0.8215
vn -0.9366 0.1735 0.3046
vn 0.9416 -0.1567 -0.2981
vn -0.3645 -0.4999 -0.7857
vn -0.3022 -0.4243 -0.8536
vn 0.9416 -0.2173 -0.2574
vn 0.9149 -0.3436 -0.2119
vn -0.3736 -0.3215 -0.8701
vn -0.9304 0.1464 0.3361
vn -0.9088 0.2897 0.3002
vn 0.4121 0.4347 0.8007
vn 0.7735 -0.4637 -0.4321
vn 0.3835 -0.5413 0.7483
vn -0.7862 -0.5266 0.3232
vn -0.3339 -0.4448 -0.8311
vn -0.1115 -0.0521 -0.9924
vn -0.9881 -0.1305 0.0811
vn 0.9238 0.3311 -0.1920
vn 0.9033 0.0018 -0.4290
vn 0.2990 -0.1558 0.9414
vn 0.9265 -0.1867 -0.3268
vn 0.2690 0.3402 0.9010
vn 0.0154 0.3678 0.9298
vn 0.9915 0.0650 -0.1123
vn -0.1583 0.2859 0.9451
vn -0.9005 0.2102 0.3806
vn -0.4638 0.3040 -0.8322
vn -0.9948 -0.0891 0.0496
vn -0.0507 -0.1293 -0.9903
vn -0.9859 -0.0388 0.1630
vn -0.8447 0.3836 0.3732
vn 0.9835 0.1703 -0.0610
vn -0.0164 0.2005 0.9796
vn -0.0649 -0.3943 -0.9167
vn 0.3288 0.3136 0.8908
vn -0.9123 0.3274 0.2461
usemtl espinhos
s 1
f 106/1/1 105/2/2 109/3/3 110/4/4
f 99/5/5 100/6/6 101/7/7 96/8/8
f 136/9/9 139/10/10 4/11/11 1/12/12
f 137/13/13 136/9/9 1/14/12 2/15/14
f 138/16/15 137/13/13 2/15/14 3/17/16
f 139/10/10 138/16/15 3/17/16 4/11/11
f 8/18/17 5/19/18 1/12/12 4/11/11
f 5/20/18 6/21/19 2/15/14 1/14/12
f 6/21/19 7/22/20 3/17/16 2/15/14
f 7/22/20 8/18/17 4/11/11 3/17/16
f 5/19/18 8/18/17 159/23/21 156/24/22
f 6/21/19 5/20/18 156/25/22 157/26/23
f 7/22/20 6/21/19 157/26/23 158/27/24
f 8/18/17 7/22/20 158/27/24 159/23/21
f 140/28/25 143/29/26 12/30/27 9/31/28
f 141/32/29 140/28/25 9/31/28 10/33/30
f 142/34/31 141/32/29 10/33/30 11/35/32
f 143/29/26 142/34/31 11/35/32 12/30/27
f 9/31/28 12/30/27 16/36/33 13/37/34
f 10/33/30 9/31/28 13/37/34 14/38/35
f 11/35/32 10/33/30 14/38/35 15/39/36
f 12/30/27 11/35/32 15/39/36 16/36/33
f 144/40/37 147/41/38 20/42/39 17/43/40
f 145/44/41 144/40/37 17/43/40 18/45/42
f 146/46/43 145/44/41 18/45/42 19/47/44
f 147/41/38 146/46/43 19/47/44 20/42/39
f 17/43/40 20/42/39 24/48/45 21/49/46
f 18/45/42 17/43/40 21/49/46 22/50/47
f 19/47/44 18/45/42 22/50/47 23/51/48
f 21/49/46 24/48/45 27/52/49 25/53/50
f 22/50/47 21/49/46 25/53/50 119/54/51
f 23/51/48 22/50/47 119/54/51 26/55/52
f 24/48/45 23/51/48 26/55/52 27/52/49
f 148/56/53 151/57/54 31/58/55 28/59/56
f 149/60/57 148/56/53 28/59/56 29/61/58
f 150/62/59 149/60/57 29/61/58 30/63/60
f 151/57/54 150/62/59 30/63/60 31/58/55
f 35/64/61 32/65/62 28/59/56 31/58/55
f 32/65/62 33/66/63 29/61/58 28/59/56
f 33/66/63 34/67/64 30/63/60 29/61/58
f 34/67/64 35/64/61 31/58/55 30/63/60
f 32/65/62 35/64/61 39/68/65 36/69/66
f 33/66/63 32/65/62 36/69/66 37/70/67
f 34/67/64 33/66/63 37/70/67 38/71/68
f 35/64/61 34/67/64 38/71/68 39/68/65
f 152/72/69 155/73/70 43/74/71 40/75/72
f 153/76/73 152/72/69 40/75/72 41/77/74
f 154/78/75 153/76/73 41/77/74 42/79/76
f 155/73/70 154/78/75 42/79/76 43/74/71
f 20/42/39 19/47/44 23/51/48 24/48/45
f 47/80/77 44/81/78 40/75/72 43/74/71
f 44/81/78 45/82/79 41/77/74 40/75/72
f 45/82/79 46/83/80 42/79/76 41/77/74
f 46/83/80 47/80/77 43/74/71 42/79/76
f 48/84/81 51/85/82 55/86/83 52/87/84
f 49/88/85 48/84/81 52/87/84 53/89/86
f 50/90/87 49/88/85 53/89/86 54/91/88
f 51/85/82 50/92/87 54/93/88 55/86/83
f 52/87/84 55/86/83 171/94/89 168/95/90
f 53/89/86 52/87/84 168/95/90 169/96/91
f 54/91/88 53/89/86 169/96/91 170/97/92
f 55/86/83 54/93/88 170/98/92 171/94/89
f 156/24/22 159/23/21 59/99/93 56/100/94
f 157/26/23 156/25/22 56/101/94 57/102/95
f 158/27/24 157/26/23 57/102/95 58/103/96
f 159/23/21 158/27/24 58/103/96 59/99/93
f 63/104/97 60/105/98 56/100/94 59/99/93
f 60/106/98 61/107/99 57/102/95 56/101/94
f 61/107/99 62/108/100 58/103/96 57/102/95
f 62/108/100 63/104/97 59/99/93 58/103/96
f 60/105/98 63/104/97 67/109/101 64/110/102
f 61/107/99 60/106/98 64/111/102 65/112/103
f 62/108/100 61/107/99 65/112/103 66/113/104
f 63/104/97 62/108/100 66/113/104 67/109/101
f 68/114/105 71/115/106 75/116/107 72/117/108
f 69/118/109 68/119/105 72/120/108 73/121/110
f 70/122/111 69/118/109 73/121/110 74/123/112
f 71/115/106 70/122/111 74/123/112 75/116/107
f 72/117/108 75/116/107 79/124/113 76/125/114
f 73/121/110 72/120/108 76/126/114 77/127/115
f 74/123/112 73/121/110 77/127/115 78/128/116
f 75/116/107 74/123/112 78/128/116 79/124/113
f 76/125/114 79/124/113 83/129/117 80/130/114
f 77/127/115 76/126/114 80/131/114 81/132/115
f 78/128/116 77/127/115 81/132/115 82/133/116
f 79/124/113 78/128/116 82/133/116 83/129/117
f 80/130/114 83/129/117 87/134/118 84/135/119
f 81/132/115 80/131/114 84/136/119 85/137/120
f 82/133/116 81/132/115 85/137/120 86/138/121
f 83/129/117 82/133/116 86/138/121 87/134/118
f 84/135/119 87/134/118 163/139/122 160/140/123
f 85/137/120 84/136/119 160/141/123 161/142/124
f 86/138/121 85/137/120 161/142/124 162/143/125
f 87/134/118 86/138/121 162/143/125 163/139/122
f 160/140/123 163/139/122 91/144/126 88/145/127
f 161/142/124 160/141/123 88/146/127 89/147/128
f 162/143/125 161/142/124 89/147/128 90/148/129
f 163/139/122 162/143/125 90/148/129 91/144/126
f 95/149/130 92/150/131 88/145/127 91/144/126
f 92/151/131 93/152/132 89/147/128 88/146/127
f 93/152/132 94/153/133 90/148/129 89/147/128
f 94/153/133 95/149/130 91/144/126 90/148/129
f 92/150/131 95/149/130 99/5/5 96/8/8
f 93/152/132 92/151/131 96/154/8 97/155/134
f 94/153/133 93/152/132 97/155/134 98/156/135
f 95/149/130 94/153/133 98/156/135 99/5/5
f 100/6/6 103/157/136 107/158/137 104/159/138
f 101/7/7 100/6/6 104/159/138 105/160/2
f 102/161/139 101/162/7 105/2/2 106/1/1
f 103/157/136 102/161/139 106/1/1 107/158/137
f 107/158/137 106/1/1 110/4/4 111/163/140
f 167/164/141 166/165/142 114/166/143 115/167/144
f 104/159/138 107/158/137 111/163/140 108/168/145
f 105/160/2 104/159/138 108/168/145 109/169/3
f 108/168/145 111/163/140 167/164/141 164/170/146
f 109/169/3 108/168/145 164/170/146 165/171/147
f 110/4/4 109/3/3 165/172/147 166/165/142
f 111/163/140 110/4/4 166/165/142 167/164/141
f 39/173/65 68/119/105 69/118/109 36/174/66
f 38/71/68 67/109/101 71/115/106 39/68/65
f 64/110/102 67/109/101 38/71/68 37/70/67
f 66/113/104 70/122/111 71/115/106 67/109/101
f 97/155/134 96/154/8 45/82/79 44/81/78
f 66/113/104 65/112/103 69/118/109 70/122/111
f 65/112/103 37/175/67 36/174/66 69/118/109
f 47/80/77 46/83/80 102/161/139 103/157/136
f 45/82/79 96/154/8 101/162/7 102/161/139
f 175/176/148 174/177/149 173/178/150 172/179/151
f 152/72/69 153/76/73 154/78/75 155/73/70
f 148/56/53 149/60/57 150/62/59 151/57/54
f 130/180/152 48/84/81 131/181/153
f 130/180/152 129/182/154 51/85/82 48/84/81
f 144/40/37 145/44/41 146/46/43 147/41/38
f 129/182/154 13/37/34 16/36/33 51/85/82
f 140/28/25 141/32/29 142/34/31 143/29/26
f 136/9/9 137/13/13 138/16/15 139/10/10
f 135/183/155 134/184/156 174/177/149 175/176/148
f 118/185/157 117/186/158 120/187/159 121/188/160
f 13/37/34 129/182/154 128/189/161 14/38/35
f 131/181/153 48/84/81 49/88/85
f 131/181/153 49/88/85 15/190/36
f 49/88/85 50/90/87 15/190/36
f 134/191/156 133/192/162 173/178/150 174/177/149
f 133/192/162 132/193/163 172/179/151 173/178/150
f 64/111/102 37/175/67 65/112/103
f 132/193/163 135/183/155 175/176/148 172/179/151
f 171/94/89 170/98/92 134/184/156 135/183/155
f 170/97/92 169/96/91 133/192/162 134/191/156
f 169/96/91 168/95/90 132/193/163 133/192/162
f 168/95/90 171/94/89 135/183/155 132/193/163
f 71/115/106 68/114/105 39/68/65
f 127/194/164 126/195/165 130/180/152 131/181/153
f 25/53/50 27/52/49 123/196/166 116/197/167
f 51/85/82 16/36/33 15/39/36 50/92/87
f 126/195/165 125/198/168 129/182/154 130/180/152
f 125/198/168 124/199/169 128/189/161 129/182/154
f 44/81/78 47/80/77 98/156/135
f 97/155/134 44/81/78 98/156/135
f 124/200/169 127/194/164 131/181/153 128/201/161
f 98/156/135 47/80/77 103/157/136
f 123/196/166 122/202/170 126/195/165 127/194/164
f 14/38/35 128/189/161 15/39/36
f 128/201/161 131/181/153 15/190/36
f 122/202/170 121/188/160 125/198/168 126/195/165
f 121/188/160 120/187/159 124/199/169 125/198/168
f 46/83/80 45/82/79 102/161/139
f 120/203/159 123/196/166 127/194/164 124/200/169
f 98/156/135 103/157/136 100/6/6
f 99/5/5 98/156/135 100/6/6
f 119/54/51 118/185/157 26/55/52
f 115/167/144 114/166/143 118/185/157 119/54/51
f 114/166/143 113/204/171 117/186/158 118/185/157
f 119/54/51 25/53/50 116/197/167
f 113/205/171 112/206/172 116/197/167 117/207/158
f 112/206/172 115/167/144 119/54/51 116/197/167
f 26/55/52 118/185/157 121/188/160
f 26/55/52 121/188/160 122/202/170
f 27/52/49 26/55/52 122/202/170
f 27/52/49 122/202/170 123/196/166
f 166/165/142 165/172/147 113/204/171 114/166/143
f 165/171/147 164/170/146 112/206/172 113/205/171
f 116/197/167 123/196/166 120/203/159
f 117/207/158 116/197/167 120/203/159
f 164/170/146 167/164/141 115/167/144 112/206/172
