# Blender v3.2.0 OBJ File: 'Luz.blend'
# www.blender.org
mtllib REcep.mtl
o Receptor_Cylinder.003
v 0.000000 0.199265 -0.763969
v 0.000000 3.738932 -0.763969
v 0.381984 0.199265 -0.661616
v 0.381984 3.738932 -0.661616
v 0.661616 0.199265 -0.381984
v 0.661616 3.738932 -0.381984
v 0.763969 0.199265 0.000000
v 0.763969 3.738932 0.000000
v 0.661616 0.199265 0.381984
v 0.661616 3.738932 0.381984
v 0.381984 0.199265 0.661616
v 0.381984 3.738932 0.661616
v -0.000000 0.199265 0.763969
v -0.000000 3.738932 0.763969
v -0.381984 0.199265 0.661616
v -0.381984 3.738932 0.661616
v -0.661616 0.199265 0.381984
v -0.661616 3.738932 0.381984
v -0.763969 0.199265 -0.000000
v -0.763969 3.738932 -0.000000
v -0.661616 0.199265 -0.381984
v -0.661616 3.738932 -0.381984
v -0.381984 0.199265 -0.661616
v -0.381984 3.738932 -0.661616
v 0.381586 3.290654 -0.381984
v 0.381586 3.290654 0.000000
v 0.381586 1.144103 0.000000
v 0.381586 3.290654 0.381984
v 0.381586 1.144103 0.381984
v 0.000000 3.290654 -0.763969
v 0.000000 1.144103 -0.763969
v 0.661616 1.144103 -0.381984
v 0.661616 3.290654 -0.381984
v 0.763969 1.144103 0.000000
v 0.763969 3.290654 0.000000
v 0.661616 1.144103 0.381984
v 0.661616 3.290654 0.381984
v -0.000000 1.144103 0.763969
v -0.000000 3.290654 0.763969
v -0.381984 1.144103 0.661616
v -0.381984 3.290654 0.661616
v -0.661616 1.144103 0.381984
v -0.661616 3.290654 0.381984
v -0.763969 1.144103 -0.000000
v -0.763969 3.290654 -0.000000
v -0.661616 1.144103 -0.381984
v -0.661616 3.290654 -0.381984
v -0.381984 1.144103 -0.661616
v -0.381984 3.290654 -0.661616
v 0.419650 3.738932 -0.726855
v 0.000000 3.738932 -0.839300
v 0.726855 3.738932 -0.419650
v 0.839300 3.738932 0.000000
v 0.726855 3.738932 0.419650
v 0.419650 3.738932 0.726855
v -0.000000 3.738932 0.839300
v -0.419650 3.738932 0.726855
v -0.726855 3.738932 0.419650
v -0.839300 3.738932 -0.000000
v -0.726855 3.738932 -0.419650
v -0.419650 3.738932 -0.726855
v 0.000000 3.838381 0.000000
v 0.419650 3.838381 -0.726855
v 0.000000 3.838381 -0.839300
v 0.726855 3.838381 -0.419650
v 0.839300 3.838381 0.000000
v 0.726855 3.838381 0.419650
v 0.419650 3.838381 0.726855
v -0.000000 3.838381 0.839300
v -0.419650 3.838381 0.726855
v -0.726855 3.838381 0.419650
v -0.839300 3.838381 -0.000000
v -0.726855 3.838381 -0.419650
v -0.419650 3.838381 -0.726855
v 0.000000 0.199265 -0.942049
v 0.471025 0.199265 -0.815839
v 0.815839 0.199265 -0.471025
v 0.942049 0.199265 0.000000
v 0.815839 0.199265 0.471025
v 0.471025 0.199265 0.815839
v -0.000000 0.199265 0.942049
v -0.471025 0.199265 0.815839
v -0.815839 0.199265 0.471025
v -0.942049 0.199265 -0.000000
v -0.815839 0.199265 -0.471025
v -0.471025 0.199265 -0.815839
v 0.000000 0.000000 -0.000000
v 0.000000 0.000000 -0.942049
v 0.471025 0.000000 -0.815839
v 0.815839 0.000000 -0.471025
v 0.942049 0.000000 0.000000
v 0.815839 0.000000 0.471025
v 0.471025 0.000000 0.815839
v -0.000000 0.000000 0.942049
v -0.471025 0.000000 0.815839
v -0.815839 0.000000 0.471025
v -0.942049 0.000000 -0.000000
v -0.815839 0.000000 -0.471025
v -0.471025 0.000000 -0.815839
v 0.381586 1.144103 -0.381984
v 0.381586 1.144103 -0.661616
v 0.381586 1.144103 0.661616
v 0.381586 3.290654 0.661616
v 0.381984 3.290654 -0.661616
v 0.491918 2.447079 -0.376328
v 0.268136 2.447080 -0.376434
v 0.491918 2.713184 -0.266104
v 0.268136 2.713259 -0.266179
v 0.491919 2.823408 0.000000
v 0.268136 2.823514 0.000000
v 0.491918 2.713184 0.266104
v 0.268136 2.713259 0.266179
v 0.491918 2.447079 0.376328
v 0.268136 2.447080 0.376434
v 0.491918 2.180975 0.266104
v 0.268135 2.180901 0.266179
v 0.491918 2.070751 0.000000
v 0.268135 2.070646 0.000000
v 0.491918 2.180975 -0.266104
v 0.268135 2.180901 -0.266179
v 0.644488 2.447079 -0.349068
v 0.644489 2.693908 -0.246828
v 0.644489 2.796147 0.000000
v 0.644489 2.693908 0.246828
v 0.644488 2.447079 0.349068
v 0.644488 2.200251 0.246828
v 0.644488 2.098012 -0.000000
v 0.644488 2.200251 -0.246828
v 0.641908 2.447079 -0.454053
v 0.641908 2.768144 -0.321064
v 0.641909 2.901133 0.000000
v 0.641908 2.768144 0.321064
v 0.641908 2.447079 0.454053
v 0.641908 2.126015 0.321064
v 0.641907 1.993026 -0.000000
v 0.641908 2.126015 -0.321064
v 0.474300 2.447080 0.000000
v 0.474300 2.447080 -0.273006
v 0.474300 2.640124 -0.193045
v 0.474301 2.720086 0.000000
v 0.474300 2.640124 0.193045
v 0.474300 2.447080 0.273006
v 0.474300 2.254035 0.193045
v 0.474300 2.174073 -0.000000
v 0.474300 2.254035 -0.193045
vt 0.521530 0.235764
vt 0.628987 0.251724
vt 0.620242 0.310595
vt 0.512788 0.294635
vt 0.497179 0.414854
vt 0.595643 0.422217
vt 0.593686 0.470815
vt 0.495946 0.475747
vt 0.604599 0.518050
vt 0.503115 0.538160
vt 0.628865 0.569302
vt 0.518829 0.601289
vt 0.646404 0.629518
vt 0.536386 0.661564
vt 0.663961 0.689793
vt 0.553942 0.721839
vt 0.556501 0.000274
vt 0.663961 0.016232
vt 0.655218 0.075104
vt 0.547758 0.059146
vt 0.646475 0.133977
vt 0.539016 0.118019
vt 0.637732 0.192851
vt 0.530273 0.176892
vt 0.298283 0.135850
vt 0.275770 0.189875
vt 0.265092 0.186911
vt 0.288739 0.130254
vt 0.611504 0.369407
vt 0.504046 0.353504
vt 0.267181 0.877663
vt 0.254808 0.813363
vt 0.279776 0.809291
vt 0.296592 0.879775
vt 0.769871 0.502839
vt 0.716231 0.514650
vt 0.702593 0.452711
vt 0.756232 0.440901
vt 0.783509 0.564778
vt 0.729869 0.576589
vt 0.797147 0.626717
vt 0.743507 0.638528
vt 0.810785 0.688657
vt 0.757145 0.700467
vt 0.782577 0.075682
vt 0.738428 0.051255
vt 0.766635 0.000274
vt 0.810785 0.024702
vt 0.754397 0.126614
vt 0.710220 0.102236
vt 0.725548 0.170869
vt 0.684154 0.153813
vt 0.712217 0.216000
vt 0.667460 0.207766
vt 0.713312 0.263735
vt 0.664508 0.267053
vt 0.728954 0.317028
vt 0.675319 0.328838
vt 0.742593 0.378963
vt 0.688956 0.390774
vt 0.000287 0.433097
vt 0.000280 0.374170
vt 0.244639 0.374143
vt 0.244645 0.433070
vt 0.000293 0.492024
vt 0.244652 0.491997
vt 0.000300 0.550950
vt 0.244658 0.550924
vt 0.000306 0.609877
vt 0.244665 0.609850
vt 0.000313 0.668804
vt 0.244672 0.668777
vt 0.000305 0.059200
vt 0.000313 0.000274
vt 0.244671 0.000304
vt 0.244664 0.059231
vt 0.000298 0.118070
vt 0.244657 0.118100
vt 0.631675 0.407661
vt 0.762450 0.166549
vt 0.764076 0.222887
vt 0.748699 0.278236
vt 0.000274 0.315243
vt 0.244632 0.315273
vt 0.648239 0.465765
vt 0.643017 0.526538
vt 0.253921 0.184057
vt 0.278690 0.124637
vt 0.380054 0.053864
vt 0.333851 0.089487
vt 0.326076 0.081641
vt 0.374565 0.044306
vt 0.433120 0.467894
vt 0.494093 0.476803
vt 0.495399 0.489339
vt 0.429917 0.478867
vt 0.267865 0.247960
vt 0.256767 0.247836
vt 0.275146 0.306221
vt 0.297170 0.360748
vt 0.287442 0.366164
vt 0.264370 0.308954
vt 0.332509 0.407870
vt 0.324483 0.415614
vt 0.493782 0.024077
vt 0.433757 0.031372
vt 0.430999 0.020929
vt 0.495399 0.012673
vt 0.378833 0.444403
vt 0.373050 0.453967
vt 0.367246 0.464029
vt 0.316301 0.423842
vt 0.427799 0.009667
vt 0.493764 0.000274
vt 0.317818 0.073646
vt 0.277438 0.372007
vt 0.253219 0.312029
vt 0.245219 0.247946
vt 0.493451 0.500989
vt 0.426828 0.489850
vt 0.368645 0.034466
vt 0.936395 0.504122
vt 0.936395 0.629185
vt 0.873864 0.612430
vt 0.125337 0.794414
vt 0.062805 0.686107
vt 0.125336 0.669351
vt 0.017029 0.731883
vt 0.000274 0.794414
vt 0.017029 0.856946
vt 0.062805 0.902722
vt 0.125337 0.919477
vt 0.873864 0.395815
vt 0.936395 0.379060
vt 0.828088 0.441591
vt 0.811332 0.504122
vt 0.828088 0.566654
vt 0.277642 0.691673
vt 0.302212 0.634989
vt 0.319853 0.645655
vt 0.296327 0.696232
vt 0.833295 0.376400
vt 0.820922 0.312100
vt 0.845889 0.308028
vt 0.862705 0.378512
vt 0.277528 0.619472
vt 0.322909 0.560071
vt 0.346027 0.582401
vt 0.251310 0.684260
vt 0.811332 0.249084
vt 0.817423 0.182997
vt 0.843756 0.190410
vt 0.837422 0.249083
vt 0.889023 0.058808
vt 0.947047 0.000274
vt 0.980042 0.021569
vt 0.912141 0.081138
vt 0.245219 0.750347
vt 0.271308 0.750346
vt 0.843642 0.118209
vt 0.868325 0.133725
vt 0.380934 0.501537
vt 0.413929 0.522832
vt 0.433613 0.548799
vt 0.362574 0.598964
vt 0.299121 0.804327
vt 0.322574 0.873233
vt 0.885967 0.144392
vt 0.862441 0.194969
vt 0.865235 0.303064
vt 0.888687 0.371970
vt 0.290166 0.749364
vt 0.928687 0.097701
vt 0.856279 0.248101
vt 0.999726 0.047536
vt 0.433613 0.738088
vt 0.999726 0.236825
vt 0.244652 0.159768
vt 0.000293 0.159738
vt 0.244645 0.216687
vt 0.000286 0.216657
vt 0.244638 0.273606
vt 0.000279 0.273575
vt 0.158390 0.679876
vt 0.190665 0.685282
vt 0.185069 0.718641
vt 0.151517 0.714205
vt 0.182026 0.757961
vt 0.149304 0.757961
vt 0.185069 0.797281
vt 0.151517 0.801717
vt 0.190665 0.830640
vt 0.158390 0.836046
vt 0.868578 0.696990
vt 0.908471 0.703671
vt 0.901556 0.744906
vt 0.860083 0.739422
vt 0.897793 0.793507
vt 0.857347 0.793507
vt 0.901556 0.842109
vt 0.860083 0.847593
vt 0.908471 0.883344
vt 0.868578 0.890025
vt 0.829926 0.853632
vt 0.828398 0.793507
vt 0.683507 0.814056
vt 0.719247 0.792100
vt 0.731991 0.822581
vt 0.707429 0.838317
vt 0.125884 0.757961
vt 0.127120 0.709319
vt 0.829926 0.733383
vt 0.840845 0.683980
vt 0.840845 0.903035
vt 0.135953 0.669351
vt 0.127120 0.806603
vt 0.135953 0.846571
vt 0.754713 0.916251
vt 0.782907 0.947308
vt 0.776528 0.966293
vt 0.740259 0.927359
vt 0.747474 0.863088
vt 0.732667 0.860981
vt 0.769260 0.814056
vt 0.758479 0.799357
vt 0.805000 0.792100
vt 0.804171 0.772089
vt 0.668960 0.916251
vt 0.697155 0.947308
vt 0.690776 0.966293
vt 0.654506 0.927359
vt 0.661721 0.863088
vt 0.646914 0.860981
vt 0.672726 0.799357
vt 0.718419 0.772089
vt 0.696151 0.867989
vt 0.698702 0.899630
vt 0.817743 0.822581
vt 0.793182 0.838317
vt 0.781904 0.867989
vt 0.784454 0.899630
vt 0.717897 0.921593
vt 0.803650 0.921593
vt 0.817743 0.873090
vt 0.731991 0.873090
vn -0.2588 0.0000 -0.9659
vn 0.9659 0.0000 -0.2588
vn 1.0000 0.0000 0.0000
vn 0.9659 0.0000 0.2588
vn 0.7069 0.0001 0.7074
vn 0.4210 0.0001 0.9071
vn 0.5000 0.0001 0.8661
vn 0.2590 0.0000 0.9659
vn 0.2589 0.0001 0.9659
vn -0.2588 0.0000 0.9659
vn -0.5000 0.0000 0.8660
vn -0.8660 0.0000 0.5000
vn -0.7071 0.0000 0.7071
vn -0.9659 0.0000 0.2588
vn -1.0000 0.0000 0.0000
vn -0.8660 0.0000 -0.5000
vn -0.7071 0.0000 -0.7071
vn 0.0000 -1.0000 -0.0000
vn 0.2589 0.0001 -0.9659
vn 0.2589 0.0000 -0.9659
vn 0.4209 0.0001 -0.9071
vn 0.5000 0.0001 -0.8661
vn 0.0000 1.0000 0.0000
vn 0.7069 0.0001 -0.7074
vn 0.4209 -0.0001 0.9071
vn 0.5000 -0.0002 0.8660
vn 0.2589 -0.0001 0.9659
vn 0.2590 -0.0001 0.9659
vn 0.7069 -0.0003 0.7074
vn 0.4210 -0.0000 -0.9071
vn 0.5000 0.0000 -0.8660
vn 0.7071 0.0000 -0.7071
vn 0.2588 0.0000 -0.9659
vn 0.8660 0.0000 -0.5000
vn -0.0000 0.0000 1.0000
vn 0.8660 0.0000 0.5000
vn 0.7071 0.0000 0.7071
vn 0.2588 0.0000 0.9659
vn 1.0000 -0.0000 0.0004
vn 1.0000 -0.0001 0.0007
vn -0.2330 0.3722 -0.8985
vn 0.0004 0.3827 -0.9239
vn -0.2330 0.8985 -0.3722
vn 0.0004 0.9239 -0.3827
vn -0.2330 0.8985 0.3722
vn 0.0004 0.9239 0.3827
vn -0.2330 0.3722 0.8985
vn 0.0004 0.3827 0.9239
vn -0.2330 -0.3722 0.8985
vn 0.0004 -0.3827 0.9239
vn -0.2330 -0.8985 0.3722
vn 0.0004 -0.9239 0.3827
vn -0.2330 -0.8985 -0.3722
vn 0.0004 -0.9239 -0.3827
vn -0.2330 -0.3722 -0.8985
vn 0.0004 -0.3827 -0.9239
vn -0.4318 -0.8333 -0.3452
vn 0.3817 0.3537 0.8539
vn -0.4318 0.8333 -0.3452
vn -0.4318 -0.3452 0.8333
vn -0.4318 -0.3452 -0.8333
vn -0.4318 0.3452 -0.8333
vn -0.4318 0.8333 0.3452
vn -0.4318 -0.8333 0.3452
vn -0.4318 0.3452 0.8333
vn 0.9997 0.0174 -0.0174
vn 0.9997 -0.0000 -0.0246
vn 0.9997 0.0246 0.0000
vn 0.9997 0.0174 0.0174
vn 0.9997 -0.0000 0.0246
vn 0.9997 -0.0174 0.0174
vn 0.9997 -0.0246 -0.0000
vn 0.9997 -0.0174 -0.0174
vn 0.3817 0.8539 -0.3537
vn 0.3817 -0.3537 -0.8539
vn 0.3817 -0.8539 0.3537
vn 0.3817 0.8539 0.3537
vn 0.3817 0.3537 -0.8539
vn 0.3817 -0.8539 -0.3537
vn 0.3817 -0.3537 0.8539
usemtl Material.001
s 1
f 23/1/1 48/2/1 31/3/1 1/4/1
f 5/5/2 32/6/2 34/7/3 7/8/3
f 7/8/3 34/7/3 36/9/4 9/10/4
f 9/10/5 36/9/5 102/11/6 11/12/7
f 11/12/7 102/11/6 38/13/8 13/14/9
f 13/14/10 38/13/10 40/15/11 15/16/11
f 15/17/11 40/18/11 42/19/12 17/20/13
f 17/20/14 42/19/12 44/21/15 19/22/15
f 19/22/15 44/21/15 46/23/16 21/24/16
f 21/24/16 46/23/16 48/2/17 23/1/17
f 8/25/18 6/26/18 52/27/18 53/28/18
f 1/4/19 31/3/20 101/29/21 3/30/22
f 15/31/23 17/32/23 83/33/23 82/34/23
f 3/30/22 101/29/21 32/6/24 5/5/24
f 47/35/16 22/36/16 24/37/17 49/38/17
f 45/39/15 20/40/15 22/36/16 47/35/16
f 43/41/12 18/42/12 20/40/15 45/39/15
f 41/43/11 16/44/11 18/42/12 43/41/12
f 39/45/10 14/46/10 16/47/11 41/48/11
f 103/49/25 12/50/26 14/46/27 39/45/28
f 37/51/29 10/52/29 12/50/26 103/49/25
f 35/53/3 8/54/3 10/52/4 37/51/4
f 33/55/2 6/56/2 8/54/3 35/53/3
f 104/57/30 4/58/31 6/56/32 33/55/32
f 30/59/20 2/60/33 4/58/31 104/57/30
f 49/61/1 30/62/1 31/63/1 48/64/1
f 47/65/16 49/61/17 48/64/17 46/66/16
f 45/67/15 47/65/16 46/66/16 44/68/15
f 43/69/12 45/67/15 44/68/15 42/70/12
f 41/71/11 43/69/12 42/70/12 40/72/11
f 39/73/10 41/74/11 40/75/11 38/76/10
f 103/77/25 39/73/28 38/76/8 102/78/6
f 32/6/23 101/29/23 100/79/23
f 35/53/18 37/51/18 28/80/18 26/81/18
f 33/55/18 35/53/18 26/81/18 25/82/18
f 30/62/20 104/83/30 101/84/21 31/63/20
f 49/38/1 24/37/1 2/60/1 30/59/1
f 37/51/18 103/49/18 28/80/18
f 34/7/23 32/6/23 100/79/23 27/85/23
f 36/9/23 34/7/23 27/85/23 29/86/23
f 102/11/23 36/9/23 29/86/23
f 104/57/18 33/55/18 25/82/18
f 53/28/3 52/27/34 65/87/34 66/88/3
f 12/89/18 10/90/18 54/91/18 55/92/18
f 18/93/18 16/94/18 57/95/18 58/96/18
f 6/26/18 4/97/18 50/98/18 52/27/18
f 2/99/18 24/100/18 61/101/18 51/102/18
f 24/100/18 22/103/18 60/104/18 61/101/18
f 10/90/18 8/25/18 53/28/18 54/91/18
f 16/105/18 14/106/18 56/107/18 57/108/18
f 22/103/18 20/109/18 59/110/18 60/104/18
f 14/106/18 12/89/18 55/92/18 56/107/18
f 4/97/18 2/99/18 51/102/18 50/98/18
f 20/109/18 18/93/18 58/96/18 59/110/18
f 60/104/16 59/110/15 72/111/15 73/112/16
f 57/108/10 56/107/35 69/113/35 70/114/10
f 54/91/36 53/28/3 66/88/3 67/115/36
f 61/101/17 60/104/16 73/112/16 74/116/17
f 50/98/33 51/102/33 64/117/33 63/118/33
f 58/96/12 57/95/13 70/119/13 71/120/12
f 55/92/37 54/91/36 67/115/36 68/121/37
f 51/102/1 61/101/1 74/116/1 64/117/1
f 52/27/34 50/98/32 63/118/32 65/87/34
f 59/110/15 58/96/12 71/120/12 72/111/15
f 56/107/35 55/92/38 68/121/38 69/113/35
f 62/122/23 63/123/23 64/124/23
f 62/125/23 65/126/23 63/127/23
f 62/125/23 66/128/23 65/126/23
f 62/125/23 67/129/23 66/128/23
f 62/125/23 68/130/23 67/129/23
f 62/125/23 69/131/23 68/130/23
f 62/125/23 70/132/23 69/131/23
f 62/122/23 71/133/23 70/134/23
f 62/122/23 72/135/23 71/133/23
f 62/122/23 73/136/23 72/135/23
f 62/122/23 74/137/23 73/136/23
f 62/122/23 64/124/23 74/137/23
f 85/138/16 86/139/17 99/140/17 98/141/16
f 3/142/23 5/143/23 77/144/23 76/145/23
f 23/146/23 1/147/23 75/148/23 86/139/23
f 21/149/23 23/146/23 86/139/23 85/138/23
f 7/150/23 9/151/23 79/152/23 78/153/23
f 13/154/23 15/155/23 82/156/23 81/157/23
f 19/158/23 21/149/23 85/138/23 84/159/23
f 11/160/23 13/154/23 81/157/23 80/161/23
f 1/147/23 3/162/23 76/163/23 75/148/23
f 17/32/23 19/158/23 84/159/23 83/33/23
f 5/143/23 7/150/23 78/153/23 77/144/23
f 9/151/23 11/160/23 80/161/23 79/152/23
f 75/148/33 76/163/31 89/164/31 88/165/33
f 82/34/11 83/33/13 96/166/13 95/167/11
f 79/152/36 80/161/37 93/168/37 92/169/36
f 86/139/1 75/148/1 88/165/1 99/140/1
f 76/145/31 77/144/34 90/170/34 89/171/31
f 83/33/14 84/159/15 97/172/15 96/166/14
f 80/161/38 81/157/38 94/173/38 93/168/38
f 77/144/34 78/153/2 91/174/2 90/170/34
f 84/159/15 85/138/16 98/141/16 97/172/15
f 81/157/10 82/156/11 95/175/11 94/173/10
f 78/153/4 79/152/36 92/169/36 91/174/4
f 87/176/18 88/165/18 89/164/18
f 87/177/18 89/171/18 90/170/18
f 87/177/18 90/170/18 91/174/18
f 87/177/18 91/174/18 92/169/18
f 87/177/18 92/169/18 93/168/18
f 87/177/18 93/168/18 94/173/18
f 87/177/18 94/173/18 95/175/18
f 87/176/18 95/167/18 96/166/18
f 87/176/18 96/166/18 97/172/18
f 87/176/18 97/172/18 98/141/18
f 87/176/18 98/141/18 99/140/18
f 87/176/18 99/140/18 88/165/18
f 29/178/3 28/179/3 103/77/3 102/78/3
f 28/179/3 29/178/3 27/180/3 26/181/3
f 100/182/39 25/183/39 26/181/3 27/180/3
f 25/183/39 100/182/39 101/84/40 104/83/40
f 105/184/41 106/185/42 108/186/42 107/187/41
f 107/187/43 108/186/44 110/188/44 109/189/43
f 109/189/45 110/188/46 112/190/46 111/191/45
f 111/191/47 112/190/48 114/192/48 113/193/47
f 113/194/49 114/195/50 116/196/50 115/197/49
f 115/197/51 116/196/52 118/198/52 117/199/51
f 117/199/53 118/198/54 120/200/54 119/201/53
f 119/201/55 120/200/56 106/202/56 105/203/55
f 117/199/53 119/201/53 136/204/57 135/205/57
f 128/206/58 121/207/58 138/208/58 145/209/58
f 107/187/43 109/189/43 131/210/59 130/211/59
f 113/194/49 115/197/49 134/212/60 133/213/60
f 119/201/55 105/203/55 129/214/61 136/204/61
f 105/184/41 107/187/41 130/211/62 129/215/62
f 109/189/45 111/191/45 132/216/63 131/210/63
f 115/197/51 117/199/51 135/205/64 134/212/64
f 111/191/47 113/193/47 133/217/65 132/216/65
f 122/218/66 121/219/67 129/220/67 130/221/66
f 123/222/68 122/218/66 130/221/66 131/223/68
f 124/224/69 123/222/68 131/223/68 132/225/69
f 125/226/70 124/224/69 132/225/69 133/227/70
f 126/228/71 125/229/70 133/230/70 134/231/71
f 127/232/72 126/228/71 134/231/71 135/233/72
f 128/206/73 127/232/72 135/233/72 136/234/73
f 121/207/67 128/206/73 136/234/73 129/235/67
f 126/228/74 127/232/74 144/236/74 143/237/74
f 124/224/75 125/226/75 142/238/75 141/239/75
f 122/218/76 123/222/76 140/240/76 139/241/76
f 127/232/77 128/206/77 145/209/77 144/236/77
f 125/229/78 126/228/78 143/237/78 142/242/78
f 123/222/79 124/224/79 141/239/79 140/240/79
f 121/219/80 122/218/80 139/241/80 138/243/80
f 137/244/3 138/243/3 139/241/3
f 137/244/3 139/241/3 140/240/3
f 137/244/3 140/240/3 141/239/3
f 137/244/3 141/239/3 142/238/3
f 137/245/3 142/242/3 143/237/3
f 137/245/3 143/237/3 144/236/3
f 137/245/3 144/236/3 145/209/3
f 137/245/3 145/209/3 138/208/3
