# Blender v3.0.1 OBJ File: 'PlatformPuzzle.blend'
# www.blender.org
mtllib PlatformPuzzle.mtl
o LowPoly_Cube.001
v 0.500000 -0.500000 0.075000
v 0.500000 -0.500000 -0.075000
v 0.500000 0.500000 0.075000
v 0.500000 0.500000 -0.075000
v -0.500000 -0.500000 0.075000
v -0.500000 -0.500000 -0.075000
v -0.500000 0.500000 0.075000
v -0.500000 0.500000 -0.075000
v 0.488919 -0.488919 0.050798
v 0.488919 -0.488919 -0.050798
v 0.488919 0.492434 -0.050798
v 0.488919 0.492434 0.050798
v -0.492434 0.492434 -0.050798
v -0.492434 0.492434 0.050798
v -0.492434 -0.488919 -0.050798
v -0.492434 -0.488919 0.050798
v 0.471225 -0.471225 0.048784
v 0.471225 -0.471225 -0.048784
v 0.471225 0.471225 -0.048784
v 0.471225 0.471225 0.048784
v -0.464196 0.464196 -0.047875
v -0.464196 0.464196 0.047875
v -0.471225 -0.471225 -0.048784
v -0.471225 -0.471225 0.048784
vt 0.944769 0.320152
vt 0.894118 0.323631
vt 0.894118 0.009702
vt 0.944769 0.012078
vt 0.149814 0.679854
vt 0.200465 0.676369
vt 0.200465 0.990297
vt 0.149814 0.987927
vt 0.079758 0.678738
vt 0.130409 0.676369
vt 0.130409 0.990297
vt 0.079758 0.986812
vt 0.617289 0.976215
vt 0.566638 0.978590
vt 0.566638 0.664661
vt 0.617289 0.668140
vt 0.009702 0.009702
vt 0.323631 0.009702
vt 0.323631 0.323631
vt 0.009702 0.323631
vt 0.009702 0.343036
vt 0.323631 0.343036
vt 0.323631 0.656964
vt 0.009702 0.656964
vt 0.894118 0.343036
vt 0.944769 0.345411
vt 0.944769 0.653486
vt 0.894118 0.656964
vt 0.343036 0.337182
vt 0.651110 0.337182
vt 0.645556 0.343840
vt 0.351901 0.346047
vt 0.219870 0.676369
vt 0.270521 0.678738
vt 0.270521 0.986812
vt 0.219870 0.990297
vt 0.651110 0.645257
vt 0.645556 0.639702
vt 0.894118 0.676369
vt 0.944769 0.679854
vt 0.944769 0.987927
vt 0.894118 0.990297
vt 0.651110 0.317777
vt 0.343036 0.317777
vt 0.348590 0.312222
vt 0.644452 0.312222
vt 0.009702 0.676369
vt 0.060353 0.679848
vt 0.060353 0.987922
vt 0.009702 0.990298
vt 0.651110 0.009702
vt 0.642246 0.018567
vt 0.874713 0.305565
vt 0.670515 0.305565
vt 0.670515 0.009702
vt 0.874713 0.009702
vt 0.344940 0.664661
vt 0.545330 0.664661
vt 0.547234 0.958321
vt 0.343036 0.958321
vt 0.874713 0.933896
vt 0.670515 0.933896
vt 0.672419 0.640236
vt 0.872809 0.640236
vt 0.874713 0.620831
vt 0.670515 0.620831
vt 0.670515 0.324969
vt 0.874713 0.324969
vt 0.343036 0.645257
vt 0.349694 0.639702
vt 0.343036 0.009702
vt 0.348590 0.016360
vn 0.9092 0.0000 0.4163
vn 0.0000 0.9544 0.2984
vn -0.9544 0.0000 0.2984
vn 0.0000 -0.9092 0.4163
vn 0.0000 0.0000 1.0000
vn 0.0000 -0.0000 -1.0000
vn 0.0000 -0.9092 -0.4163
vn 0.0001 0.0994 -0.9950
vn -0.9544 0.0000 -0.2984
vn 0.1131 -0.0000 -0.9936
vn 0.0000 0.9544 -0.2984
vn 0.0000 -0.1131 0.9936
vn 0.9092 -0.0000 -0.4163
vn -0.0994 -0.0001 0.9950
vn 0.0000 -1.0000 0.0000
vn -1.0000 0.0075 0.0000
vn -0.0075 1.0000 0.0000
vn 1.0000 0.0000 0.0000
vn -0.0994 -0.0001 -0.9950
vn 0.0000 -0.1131 -0.9936
vn 0.1131 0.0000 0.9936
vn 0.0001 0.0994 0.9950
usemtl PlatformMat
s off
f 10/1/1 2/2/1 4/3/1 11/4/1
f 11/5/2 4/6/2 8/7/2 13/8/2
f 13/9/3 8/10/3 6/11/3 15/12/3
f 15/13/4 6/14/4 2/15/4 10/16/4
f 3/17/5 7/18/5 5/19/5 1/20/5
f 8/21/6 4/22/6 2/23/6 6/24/6
f 5/25/7 16/26/7 9/27/7 1/28/7
f 14/29/8 12/30/8 20/31/8 22/32/8
f 7/33/9 14/34/9 16/35/9 5/36/9
f 12/30/10 9/37/10 17/38/10 20/31/10
f 3/39/11 12/40/11 14/41/11 7/42/11
f 15/43/12 10/44/12 18/45/12 23/46/12
f 1/47/13 9/48/13 12/49/13 3/50/13
f 13/51/14 15/43/14 23/46/14 21/52/14
f 24/53/15 23/54/15 18/55/15 17/56/15
f 22/57/16 21/58/16 23/59/16 24/60/16
f 20/61/17 19/62/17 21/63/17 22/64/17
f 17/65/18 18/66/18 19/67/18 20/68/18
f 16/69/19 14/29/19 22/32/19 24/70/19
f 9/37/20 16/69/20 24/70/20 17/38/20
f 10/44/21 11/71/21 19/72/21 18/45/21
f 11/71/22 13/51/22 21/52/22 19/72/22
