# Blender v3.0.1 OBJ File: 'WallPuzzle.blend'
# www.blender.org
mtllib WallPuzzle.mtl
o LowPoly_LOD0_Cube.004
v -3.000000 1.000000 -3.000000
v -3.000000 1.000000 3.000000
v 3.000000 1.000000 -3.000000
v 3.000000 1.000000 3.000000
v -3.000000 -1.000000 -3.000000
v -3.000000 -1.000000 3.000000
v 3.000000 -1.000000 -3.000000
v 3.000000 -1.000000 3.000000
vt 0.994208 0.005792
vt 0.994208 0.327542
vt 0.672458 0.327542
vt 0.672458 0.005792
vt 0.327542 0.005792
vt 0.327542 0.327542
vt 0.005792 0.327542
vt 0.005792 0.005792
vt 0.327542 0.339125
vt 0.327542 0.660875
vt 0.005792 0.660875
vt 0.005792 0.339125
vt 0.660875 0.005792
vt 0.660875 0.327542
vt 0.339125 0.327542
vt 0.339125 0.005792
vt 0.339125 0.339125
vt 0.660875 0.339125
vt 0.660875 0.660875
vt 0.339125 0.660875
vt 0.005792 0.672458
vt 0.327542 0.672458
vt 0.327542 0.994208
vt 0.005792 0.994208
vn 0.0000 1.0000 -0.0000
vn 1.0000 0.0000 -0.0000
vn -0.0000 -1.0000 0.0000
vn -1.0000 0.0000 0.0000
vn -0.0000 0.0000 -1.0000
vn 0.0000 0.0000 1.0000
usemtl WallMat
s off
f 1/1/1 2/2/1 4/3/1 3/4/1
f 3/5/2 4/6/2 8/7/2 7/8/2
f 7/9/3 8/10/3 6/11/3 5/12/3
f 5/13/4 6/14/4 2/15/4 1/16/4
f 3/17/5 7/18/5 5/19/5 1/20/5
f 8/21/6 4/22/6 2/23/6 6/24/6
