# Blender v2.93.1 OBJ File: 'Pilar.blend'
# www.blender.org
mtllib Pilar.mtl
o LP_Cylinder.002
v 0.000000 9.004083 -1.000000
v 0.500000 9.004083 -0.866025
v 0.866025 9.004083 -0.500000
v 1.000000 9.004083 0.000000
v 0.866025 9.004083 0.500000
v 0.500000 9.004083 0.866025
v -0.000000 9.004083 1.000000
v -0.500000 9.004083 0.866025
v -0.866025 9.004083 0.500000
v -1.000000 9.004083 -0.000000
v -0.866025 9.004083 -0.500000
v -0.500000 9.004083 -0.866025
v 0.000000 9.001966 1.494864
v -1.488725 9.001966 0.000000
v 0.000000 9.001966 -1.494864
v 1.488725 9.001966 0.000000
v 1.488725 10.007224 -1.494864
v 1.488725 9.001966 -1.494864
v 1.488725 10.007224 1.494864
v 1.488725 9.001966 1.494864
v -1.488725 10.007224 -1.494864
v -1.488725 9.001966 -1.494864
v -1.488725 10.007224 1.494864
v -1.488725 9.001966 1.494864
v 0.000000 1.003142 -1.000000
v 0.500000 1.003142 -0.866025
v 0.866025 1.003142 -0.500000
v 1.000000 1.003142 0.000000
v 0.866025 1.003142 0.500000
v 0.500000 1.003142 0.866025
v -0.000000 1.003142 1.000000
v -0.500000 1.003142 0.866025
v -0.866025 1.003142 0.500000
v -1.000000 1.003142 -0.000000
v -0.866025 1.003142 -0.500000
v -0.500000 1.003142 -0.866025
v 0.000000 1.005259 1.494864
v -1.488725 1.005259 0.000000
v 0.000000 1.005259 -1.494864
v 1.488725 1.005259 0.000000
v 1.488725 0.000000 -1.494864
v 1.488725 1.005259 -1.494864
v 1.488725 0.000000 1.494864
v 1.488725 1.005259 1.494864
v -1.488725 0.000000 -1.494864
v -1.488725 1.005259 -1.494864
v -1.488725 0.000000 1.494864
v -1.488725 1.005259 1.494864
v 0.000000 0.000000 1.494864
v 0.000000 0.000000 -1.494864
v 1.488725 0.000000 0.000000
v 0.000000 0.000000 0.000000
v -1.488725 0.000000 0.000000
v 1.488725 10.007224 0.000000
v -1.488725 10.007224 0.000000
v 0.000000 10.007224 1.494864
v 0.000000 10.007224 -1.494864
v 0.000000 10.007224 0.000000
vt 0.001534 0.263780
vt 0.001534 0.220072
vt 0.677106 0.220072
vt 0.677106 0.263779
vt 0.001534 0.482318
vt 0.001534 0.438610
vt 0.677106 0.438608
vt 0.677106 0.482316
vt 0.112458 0.994826
vt 0.163918 0.837027
vt 0.242775 0.911267
vt 0.246081 0.998356
vt 0.001534 0.088949
vt 0.001534 0.045242
vt 0.677106 0.045243
vt 0.677106 0.088950
vt 0.001534 0.132657
vt 0.677106 0.132658
vt 0.001534 0.176364
vt 0.677106 0.176365
vt 0.001534 0.307487
vt 0.677106 0.307487
vt 0.001534 0.351195
vt 0.677106 0.351194
vt 0.001534 0.394903
vt 0.677106 0.394901
vt 0.313864 0.832117
vt 0.378580 0.984481
vt 0.471146 0.879521
vt 0.387309 0.752790
vt 0.471146 0.748023
vt 0.354304 0.531602
vt 0.454533 0.621146
vt 0.306303 0.684563
vt 0.294012 0.805795
vt 0.238947 0.824349
vt 0.235586 0.761519
vt 0.301289 0.755571
vt 0.230293 0.612471
vt 0.227201 0.529093
vt 0.279804 0.705746
vt 0.232004 0.695642
vt 0.190112 0.817326
vt 0.162005 0.688975
vt 0.182595 0.715884
vt 0.172000 0.762765
vt 0.085563 0.765271
vt 0.001534 0.001534
vt 0.677106 0.001536
vt 0.101043 0.541210
vt 0.008333 0.638597
vt 0.001534 0.766832
vt 0.011643 0.897634
vt 0.480493 0.889682
vt 0.474214 0.761285
vt 0.559480 0.762906
vt 0.633125 0.837392
vt 0.483716 0.629957
vt 0.636139 0.690309
vt 0.584804 0.533238
vt 0.717558 0.529093
vt 0.714458 0.614896
vt 0.943512 0.646570
vt 0.787131 0.695765
vt 0.849667 0.542807
vt 0.658075 0.713374
vt 0.711203 0.704986
vt 0.709015 0.765551
vt 0.646879 0.765225
vt 0.943512 0.778241
vt 0.858351 0.773705
vt 0.771013 0.769710
vt 0.763588 0.717186
vt 0.658116 0.813947
vt 0.779522 0.842682
vt 0.703577 0.916058
vt 0.706745 0.828379
vt 0.756289 0.817494
vt 0.677106 0.526023
vt 0.001535 0.526025
vt 0.927983 0.905849
vt 0.827391 0.995390
vt 0.700600 0.998466
vt 0.574361 0.986249
vn 0.2588 0.0000 0.9659
vn -0.7071 0.0000 -0.7071
vn 0.0002 -1.0000 0.0036
vn 0.7071 0.0000 -0.7071
vn 0.9659 0.0000 -0.2588
vn 0.9659 0.0000 0.2588
vn 0.7071 0.0000 0.7071
vn -0.2588 0.0000 0.9659
vn -0.7071 0.0000 0.7071
vn -0.9659 0.0000 0.2588
vn -0.9659 0.0000 -0.2588
vn -0.0002 -1.0000 0.0036
vn -0.0013 -1.0000 0.0013
vn -0.0036 -1.0000 0.0002
vn -0.0013 -1.0000 -0.0013
vn -0.0036 -1.0000 -0.0002
vn 0.0000 1.0000 0.0000
vn -0.0002 -1.0000 -0.0036
vn 0.0000 0.0000 1.0000
vn 1.0000 0.0000 0.0000
vn 0.0000 0.0000 -1.0000
vn -1.0000 0.0000 0.0000
vn 0.2588 0.0000 -0.9659
vn 0.0002 -1.0000 -0.0036
vn 0.0013 -1.0000 -0.0013
vn 0.0036 -1.0000 -0.0002
vn 0.0036 -1.0000 0.0002
vn 0.0013 -1.0000 0.0013
vn 0.0002 1.0000 0.0036
vn -0.0002 1.0000 0.0036
vn -0.0013 1.0000 0.0013
vn -0.0036 1.0000 0.0002
vn -0.0013 1.0000 -0.0013
vn -0.0036 1.0000 -0.0002
vn 0.0000 -1.0000 0.0000
vn -0.0002 1.0000 -0.0036
vn -0.2588 0.0000 -0.9659
vn 0.0002 1.0000 -0.0036
vn 0.0013 1.0000 -0.0013
vn 0.0036 1.0000 -0.0002
vn 0.0036 1.0000 0.0002
vn 0.0013 1.0000 0.0013
usemtl Material.001
s off
f 31/1/1 30/2/1 6/3/1 7/4/1
f 36/5/2 35/6/2 11/7/2 12/8/2
f 12/9/3 22/10/3 15/11/3 1/12/3
f 27/13/4 26/14/4 2/15/4 3/16/4
f 28/17/5 27/13/5 3/16/5 4/18/5
f 29/19/6 28/17/6 4/18/6 5/20/6
f 30/2/7 29/19/7 5/20/7 6/3/7
f 32/21/8 31/1/8 7/4/8 8/22/8
f 33/23/9 32/21/9 8/22/9 9/24/9
f 34/25/10 33/23/10 9/24/10 10/26/10
f 35/6/11 34/25/11 10/26/11 11/7/11
f 1/12/12 15/11/12 18/27/12 2/28/12
f 3/29/13 2/28/13 18/27/13
f 3/29/14 18/27/14 16/30/14 4/31/14
f 6/32/15 5/33/15 20/34/15
f 4/31/16 16/30/16 20/34/16 5/33/16
f 17/35/17 57/36/17 58/37/17 54/38/17
f 6/32/18 20/34/18 13/39/18 7/40/18
f 20/34/19 19/41/19 56/42/19 13/39/19
f 18/27/20 17/35/20 54/38/20 16/30/20
f 22/10/21 21/43/21 57/36/21 15/11/21
f 24/44/22 23/45/22 55/46/22 14/47/22
f 26/14/23 25/48/23 1/49/23 2/15/23
f 7/40/24 13/39/24 24/44/24 8/50/24
f 9/51/25 8/50/25 24/44/25
f 9/51/26 24/44/26 14/47/26 10/52/26
f 10/52/27 14/47/27 22/10/27 11/53/27
f 12/9/28 11/53/28 22/10/28
f 36/54/29 25/55/29 39/56/29 46/57/29
f 25/55/30 26/58/30 42/59/30 39/56/30
f 27/60/31 42/59/31 26/58/31
f 27/60/32 28/61/32 40/62/32 42/59/32
f 30/63/33 44/64/33 29/65/33
f 28/61/34 29/65/34 44/64/34 40/62/34
f 41/66/35 51/67/35 52/68/35 50/69/35
f 30/63/36 31/70/36 37/71/36 44/64/36
f 44/64/19 37/71/19 49/72/19 43/73/19
f 42/59/20 40/62/20 51/67/20 41/66/20
f 46/57/21 39/56/21 50/69/21 45/74/21
f 48/75/22 38/76/22 53/77/22 47/78/22
f 1/79/37 25/80/37 36/5/37 12/8/37
f 31/70/38 32/81/38 48/75/38 37/71/38
f 33/82/39 48/75/39 32/81/39
f 33/82/40 34/83/40 38/76/40 48/75/40
f 34/83/41 35/84/41 46/57/41 38/76/41
f 36/54/42 46/57/42 35/84/42
f 50/69/21 39/56/21 42/59/21 41/66/21
f 49/72/19 37/71/19 48/75/19 47/78/19
f 50/69/35 52/68/35 53/77/35 45/74/35
f 53/77/35 52/68/35 49/72/35 47/78/35
f 53/77/22 38/76/22 46/57/22 45/74/22
f 51/67/20 40/62/20 44/64/20 43/73/20
f 52/68/35 51/67/35 43/73/35 49/72/35
f 14/47/22 55/46/22 21/43/22 22/10/22
f 16/30/20 54/38/20 19/41/20 20/34/20
f 54/38/17 58/37/17 56/42/17 19/41/17
f 13/39/19 56/42/19 23/45/19 24/44/19
f 56/42/17 58/37/17 55/46/17 23/45/17
f 58/37/17 57/36/17 21/43/17 55/46/17
f 15/11/21 57/36/21 17/35/21 18/27/21
