# Blender v3.0.1 OBJ File: 'amulet.blend'
# www.blender.org
mtllib amulet.mtl
o Cone
v -0.307151 1.453510 -0.769708
v -0.000013 1.427368 -0.999561
v 0.865630 1.427367 0.499794
v 0.524260 1.453545 0.650795
v -0.865614 1.427365 0.499828
v -0.839660 1.453510 0.152368
v 1.397671 1.658159 -0.764623
v 1.168797 1.596454 -0.638831
v 0.055516 1.630976 1.451899
v 0.047635 1.572990 1.211360
v -1.163349 1.592269 -0.590829
v -1.391391 1.653550 -0.708383
v -0.000046 1.443962 -0.998470
v 0.000000 1.450631 -0.310351
v 0.268796 1.450631 0.155231
v 0.864648 1.443961 0.499281
v -0.268781 1.450631 0.155236
v -0.864589 1.443962 0.499399
v 1.384274 1.678844 -0.757144
v 1.394660 1.674622 -0.762886
v 0.055200 1.651802 1.437323
v 0.055516 1.647443 1.448378
v -1.388348 1.670006 -0.706626
v -1.377983 1.674241 -0.701208
v -0.000009 1.450632 -0.991391
v 0.858555 1.450631 0.495729
v -0.858528 1.450630 0.495747
v -0.006017 1.469540 -0.166861
v 0.147577 1.469539 0.099181
v -0.159604 1.469539 0.099184
v 0.000000 1.469540 -0.310351
v 0.268796 1.469539 0.155231
v -0.268781 1.469539 0.155236
v -0.006017 1.568266 -0.119226
v 0.106327 1.568266 0.075365
v -0.118354 1.568266 0.075367
v -0.006017 1.568266 -0.166861
v 0.147577 1.568266 0.099181
v -0.159604 1.568266 0.099184
v -0.006017 1.544078 -0.119226
v 0.106327 1.544078 0.075365
v -0.118354 1.544078 0.075367
v 1.389625 1.649492 -0.760233
v 0.055200 1.622467 1.443575
v 0.000048 1.420697 -0.993361
v 0.298555 1.453169 -0.784831
v 0.860328 1.420697 0.496655
v 0.837317 1.453169 0.148313
v -1.383391 1.644904 -0.704329
v 1.168806 1.611286 -0.638837
v -0.860376 1.420697 0.496522
v -0.494374 1.453545 0.650716
v 0.298564 1.468001 -0.784837
v 0.837327 1.468001 0.148306
v 0.047644 1.587822 1.211353
v 0.524269 1.468377 0.650789
v -0.307141 1.468342 -0.769715
v -1.163340 1.607102 -0.590835
v -0.494365 1.468377 0.650710
v -0.839650 1.468342 0.152361
v 0.000000 1.562749 -0.430608
v 0.372917 1.562749 0.215304
v -0.372917 1.562749 0.215304
v 0.000000 2.108783 0.000000
v 0.031344 1.587241 -0.357003
v 0.031344 2.016994 -0.018097
v 0.324846 1.587241 0.151357
v 0.293502 1.587241 0.205647
v 0.000000 2.016994 0.036193
v -0.293502 1.587241 0.205646
v -0.324846 1.587241 0.151357
v -0.031344 2.016994 -0.018097
v -0.031344 1.587241 -0.357003
v 0.024831 1.586741 -0.353243
v 0.024831 2.016493 -0.014336
v 0.318333 1.586741 0.155118
v 0.000000 2.016493 0.028672
v 0.293502 1.586741 0.198125
v -0.293502 1.586741 0.198125
v -0.024831 2.016493 -0.014336
v -0.318333 1.586741 0.155117
v -0.024831 1.586741 -0.353243
v -0.000000 1.562749 -0.377804
v 0.327188 1.562749 0.188902
v -0.327188 1.562749 0.188902
v -0.000000 1.566371 -0.377804
v 0.327188 1.566371 0.188902
v -0.327188 1.566371 0.188902
vt 0.804018 0.396437
vt 0.933314 0.172491
vt 0.933314 0.172491
vt 0.804018 0.396437
vt 0.750000 0.490000
vt 0.741623 0.475491
vt 0.741623 0.475491
vt 0.750000 0.490000
vt 0.638445 0.130000
vt 0.957846 0.130000
vt 0.957846 0.130000
vt 0.638445 0.130000
vt 0.717484 0.433681
vt 0.722645 0.442619
vt 0.722645 0.442619
vt 0.717484 0.433681
vt 0.748991 0.488251
vt 0.740652 0.473809
vt 0.542555 0.130694
vt 0.685354 0.212701
vt 0.814642 0.212691
vt 0.814642 0.212691
vt 0.685354 0.212701
vt 0.543951 0.130000
vt 0.639644 0.130000
vt 0.956897 0.130000
vt 0.750012 0.488407
vt 0.956479 0.130803
vt 0.543510 0.130835
vt 0.542154 0.130000
vt 0.542154 0.130000
vt 0.957846 0.130000
vt 0.957846 0.130000
vt 0.956870 0.131691
vt 0.956860 0.131709
vt 0.750408 0.489294
vt 0.956862 0.131704
vt 0.750407 0.489294
vt 0.956873 0.131686
vt 0.639640 0.130000
vt 0.956898 0.130000
vt 0.748993 0.488257
vt 0.740655 0.473814
vt 0.543946 0.130000
vt 0.542554 0.130694
vt 0.933320 0.172480
vt 0.933320 0.172480
vt 0.750003 0.324646
vt 0.956476 0.130805
vt 0.750012 0.488403
vt 0.543513 0.130837
vt 0.713060 0.228691
vt 0.786938 0.228686
vt 0.786938 0.228686
vt 0.713060 0.228691
vt 0.750003 0.324646
vt 0.750002 0.292659
vt 0.750002 0.292659
vt 0.722981 0.234417
vt 0.777017 0.234413
vt 0.777017 0.234413
vt 0.722981 0.234417
vt 0.750001 0.281205
vt 0.750001 0.281205
vt 0.668240 0.130000
vt 0.856052 0.130000
vt 0.611590 0.130000
vt 0.594881 0.221327
vt 0.594881 0.221327
vt 0.611590 0.130000
vt 0.856052 0.130000
vt 0.668240 0.130000
vt 0.267470 0.260086
vt 0.431053 0.165641
vt 0.431053 0.165641
vt 0.267470 0.260086
vt 0.932359 0.144715
vt 0.567641 0.144715
vt 0.567641 0.144715
vt 0.932359 0.144715
vt 0.068947 0.165641
vt 0.232530 0.260086
vt 0.232530 0.260086
vt 0.068947 0.165641
vt 0.250000 0.229828
vt 0.086416 0.135383
vt 0.086416 0.135383
vt 0.250000 0.229828
vt 0.250000 0.490000
vt 0.250000 0.250000
vt 0.267470 0.448976
vt 0.457846 0.130000
vt 0.413584 0.135383
vt 0.042154 0.130000
vt 0.232530 0.448976
vt 0.267470 0.448976
vt 0.413584 0.135383
vt 0.232530 0.448976
vt 0.750000 0.490000
vt 0.957846 0.130000
vt 0.750000 0.460569
vt 0.542154 0.130000
vt 0.750000 0.460569
vn -0.1655 0.0005 0.9862
vn -0.1884 0.1013 -0.9769
vn 0.7680 0.1000 0.6327
vn 0.2046 0.0003 0.9789
vn 0.1807 0.9780 0.1043
vn 0.0000 0.0000 1.0000
vn -0.0000 0.9779 -0.2089
vn 0.0000 -1.0000 0.0000
vn -0.7254 0.1037 0.6804
vn 0.9113 0.0952 0.4005
vn 0.1496 0.0980 -0.9839
vn -0.9063 0.0950 0.4118
vn -0.1788 0.9785 0.1032
vn 0.2285 -0.6309 -0.7414
vn 0.7472 -0.6341 0.1990
vn 0.5209 -0.6288 0.5773
vn -0.2556 -0.6271 -0.7358
vn -0.4904 -0.6247 0.6076
vn -0.7453 -0.6342 0.2059
vn -0.0143 0.7563 -0.6541
vn 0.5464 0.7530 0.3667
vn 0.5681 0.7572 0.3224
vn -0.0136 0.7590 -0.6510
vn -0.5392 0.7613 0.3601
vn -0.5402 0.7531 0.3755
vn 0.8660 -0.0008 -0.5000
vn -0.0000 1.0000 0.0000
vn -0.8660 0.0000 -0.5000
vn 0.8660 0.0000 -0.5000
vn -0.0000 0.0000 -1.0000
vn 0.8660 0.0000 0.5000
vn -0.8660 0.0000 0.5000
vn 0.1784 -0.9786 -0.1030
vn -0.0000 -0.9780 0.2084
vn -0.1803 -0.9781 -0.1041
vn -0.8660 0.0003 -0.5001
vn 0.7190 -0.0008 -0.6950
vn -0.9216 0.0004 -0.3880
vn -0.0001 0.0004 1.0000
vn 0.9168 -0.0008 -0.3994
vn -0.7618 0.0002 -0.6478
vn -0.3841 -0.5537 -0.7389
vn 0.3841 -0.5537 -0.7389
vn 0.8319 -0.5537 0.0368
vn 0.8057 0.3668 -0.4651
vn -0.0000 0.3668 0.9303
vn -0.8057 0.3668 -0.4651
vn -0.8319 -0.5537 0.0368
vn 0.0575 0.9978 0.0332
vn 0.4479 -0.5537 0.7021
vn 0.0000 0.9978 -0.0664
vn -0.4479 -0.5537 0.7021
vn -0.0575 0.9978 0.0332
usemtl None
s off
f 46/1/1 8/2/1 50/3/1 53/4/1
f 2/5/2 12/6/2 23/7/2 13/8/2
f 9/9/3 3/10/3 16/11/3 22/12/3
f 11/13/4 1/14/4 57/15/4 58/16/4
f 25/17/5 24/18/5 27/19/5
f 17/20/6 15/21/6 32/22/6 33/23/6
f 27/24/7 21/25/7 26/26/7
f 45/27/8 47/28/8 51/29/8
f 5/30/9 9/9/9 22/12/9 18/31/9
f 3/10/10 7/32/10 20/33/10 16/11/10
f 7/32/11 2/5/11 13/8/11 20/33/11
f 12/6/12 5/30/12 18/31/12 23/7/12
f 26/34/13 19/35/13 25/36/13
f 2/5/14 7/32/14 43/37/14 45/38/14
f 7/32/15 3/10/15 47/39/15 43/37/15
f 3/10/16 9/9/16 44/40/16 47/41/16
f 12/6/17 2/5/17 45/42/17 49/43/17
f 9/9/18 5/30/18 51/44/18 44/40/18
f 5/30/19 12/6/19 49/43/19 51/45/19
f 25/36/20 19/35/20 20/33/20 13/8/20
f 19/35/21 26/34/21 16/11/21 20/33/21
f 26/26/22 21/25/22 22/12/22 16/11/22
f 24/18/23 25/17/23 13/8/23 23/7/23
f 21/25/24 27/24/24 18/31/24 22/12/24
f 27/19/25 24/18/25 23/7/25 18/31/25
f 48/46/26 46/1/26 53/4/26 54/47/26
f 14/48/27 15/21/27 26/49/27 25/50/27
f 17/20/27 14/48/27 25/50/27 27/51/27
f 15/21/27 17/20/27 27/51/27 26/49/27
f 30/52/6 29/53/6 38/54/6 39/55/6
f 14/48/28 17/20/28 33/23/28 31/56/28
f 15/21/29 14/48/29 31/56/29 32/22/29
f 28/57/27 29/53/27 32/22/27 31/56/27
f 30/52/27 28/57/27 31/56/27 33/23/27
f 29/53/27 30/52/27 33/23/27 32/22/27
f 28/57/28 30/52/28 39/55/28 37/58/28
f 29/53/29 28/57/29 37/58/29 38/54/29
f 36/59/30 35/60/30 41/61/30 42/62/30
f 34/63/27 35/60/27 38/54/27 37/58/27
f 36/59/27 34/63/27 37/58/27 39/55/27
f 35/60/27 36/59/27 39/55/27 38/54/27
f 41/61/27 40/64/27 42/62/27
f 34/63/31 36/59/31 42/62/31 40/64/31
f 35/60/32 34/63/32 40/64/32 41/61/32
f 8/2/33 46/1/33 45/38/33 43/37/33
f 48/46/33 8/2/33 43/37/33 47/39/33
f 10/65/34 4/66/34 47/41/34 44/40/34
f 1/14/35 11/13/35 49/43/35 45/42/35
f 52/67/34 10/65/34 44/40/34 51/44/34
f 11/13/35 6/68/35 51/45/35 49/43/35
f 46/1/33 48/46/33 47/39/33 45/38/33
f 6/68/35 1/14/35 45/42/35 51/45/35
f 4/66/34 52/67/34 51/44/34 47/41/34
f 57/15/35 60/69/35 58/16/35
f 59/70/34 56/71/34 55/72/34
f 54/47/33 53/4/33 50/3/33
f 1/14/36 6/68/36 60/69/36 57/15/36
f 10/65/37 52/67/37 59/70/37 55/72/37
f 8/2/38 48/46/38 54/47/38 50/3/38
f 52/67/39 4/66/39 56/71/39 59/70/39
f 6/68/40 11/13/40 58/16/40 60/69/40
f 4/66/41 10/65/41 55/72/41 56/71/41
f 66/73/42 67/74/42 76/75/42 75/76/42
f 84/77/30 85/78/30 88/79/30 87/80/30
f 71/81/43 72/82/43 80/83/43 81/84/43
f 69/85/44 70/86/44 79/87/44 77/88/44
f 61/89/45 64/90/45 66/73/45 65/91/45
f 64/90/45 62/92/45 67/74/45 66/73/45
f 62/92/45 61/89/45 65/91/45 67/74/45
f 62/92/46 64/90/46 69/85/46 68/93/46
f 64/90/46 63/94/46 70/86/46 69/85/46
f 63/94/46 62/92/46 68/93/46 70/86/46
f 63/94/47 64/90/47 72/82/47 71/81/47
f 64/90/47 61/89/47 73/95/47 72/82/47
f 61/89/47 63/94/47 71/81/47 73/95/47
f 74/96/45 75/76/45 76/75/45
f 78/97/46 77/88/46 79/87/46
f 81/84/47 80/83/47 82/98/47
f 68/93/48 69/85/48 77/88/48 78/97/48
f 73/95/49 71/81/49 81/84/49 82/98/49
f 65/91/50 66/73/50 75/76/50 74/96/50
f 70/86/51 68/93/51 78/97/51 79/87/51
f 72/82/52 73/95/52 82/98/52 80/83/52
f 67/74/53 65/91/53 74/96/53 76/75/53
f 61/99/8 62/100/8 84/77/8 83/101/8
f 62/100/8 63/102/8 85/78/8 84/77/8
f 63/102/8 61/99/8 83/101/8 85/78/8
f 86/103/8 87/80/8 88/79/8
f 85/78/31 83/101/31 86/103/31 88/79/31
f 83/101/32 84/77/32 87/80/32 86/103/32
