# Blender v3.2.0 OBJ File: ''
# www.blender.org
mtllib terrain Collider.mtl
o Plane_Plane.001
v -1.012681 -0.155459 -0.663439
v 0.025361 -0.155459 1.326878
v 0.987319 -0.155459 -0.663439
v -1.012681 0.155459 -0.663439
v 0.025361 0.155459 1.326878
v 0.987319 0.155459 -0.663439
vt 0.000000 0.000000
vt 1.000000 1.000000
vt 1.000000 0.000000
vt 0.000000 0.000000
vt 1.000000 0.000000
vt 1.000000 1.000000
vn 0.0000 -1.0000 0.0000
vn 0.0000 1.0000 0.0000
vn 0.0000 0.0000 -1.0000
vn 0.9004 0.0000 0.4352
vn -0.8867 0.0000 0.4624
usemtl None
s off
f 1/1/1 3/2/1 2/3/1
f 4/4/2 5/5/2 6/6/2
f 3/2/3 1/1/3 4/4/3 6/6/3
f 2/3/4 3/2/4 6/6/4 5/5/4
f 1/1/5 2/3/5 5/5/5 4/4/5
